<svg xmlns="http://www.w3.org/2000/svg">

	<symbol id="linkedin" viewBox="0 0 5.2916666 5.2916669">
		<path d="M 5.2916669,0.38588988 V 4.9058359 c 0,0.213105 -0.172861,0.385766 -0.385965,0.385766 H 0.38586487 c -0.213104,0 -0.385864995,-0.172661 -0.385864995,-0.385766 V 0.38588987 C -1.25e-7,0.17278587 0.17276087,6.4875e-5 0.38586487,6.4875e-5 H 4.9057019 c 0.213204,0 0.385965,0.172720995 0.385965,0.385825005 z M 1.5433609,1.9844249 H 0.77173087 v 2.535576 H 1.5433609 Z m 0.06591,-0.826824 c 0.01,-0.40266202 -0.479536,-0.61015503 -0.76763603,-0.32893403 -0.288201,0.28116003 -0.09287,0.77048203 0.31017003,0.77543503 h 0.01 c 0.243562,0.006 0.445982,-0.186392 0.451974,-0.429944 z m 2.910367,1.843196 c 0,-0.771651 -0.510393,-1.071536 -0.953579,-1.071536 -0.443186,0 -0.77173,0.257993 -0.84443,0.413438 h -0.01 v -0.358274 h -0.727579 v 2.535576 h 0.771731 v -1.322926 c 0,-0.406827 0.276717,-0.587606 0.545744,-0.587606 0.220394,0 0.446381,0.169785 0.446381,0.577719 v 1.332813 h 0.771731 z"/>
	</symbol>

	<symbol id="email" viewBox="0 0 8.5374955 7.3177706">
		<g transform="translate(-22.754166,-1178.1895) matrix(0.30491056,0,0,0.30491056,22.144345,1176.9699)">
			<path d="M 16,16.8 29.8,7.6 C 29.2,5.5 27.3,4 25,4 H 7 C 4.7,4 2.8,5.5 2.2,7.6 Z" />
			<path d="M 16.6,18.8 C 16.4,18.9 16.2,19 16,19 15.8,19 15.6,18.9 15.4,18.8 L 2,9.9 V 23 c 0,2.8 2.2,5 5,5 h 18 c 2.8,0 5,-2.2 5,-5 V 9.9 Z" />
		</g>
	</symbol>

	<symbol id="cv" viewBox="0 0 4.0915963 5.291675">
		<g transform="translate(-8.2367443,0.03291259)">
			<path d="M 9.6571255,-0.03291259 V 1.0114594 c 0,5.29e-4 2e-4,9.99e-4 2e-4,0.002 0,0.006 0,0.01228 0,0.01807 v 9e-5 c -0.01,0.02047 -0.01598,0.03844 -0.03095,0.05132 -0.01,0.004 -0.01,0.007 -0.01398,0.01 -0.01198,0.007 -0.02696,0.01088 -0.04294,0.01088 h -1.332711 v 3.8617 c 0,0.162448 0.130705,0.293243 0.293163,0.293243 h 3.5051705 c 0.162458,0 0.293263,-0.130795 0.293263,-0.293243 V 0.26090741 c 0,-0.162438 -0.130805,-0.293223 -0.293263,-0.293223 z m -0.179931,0.03814 -1.162466,0.918041 h 1.162466 z M 9.5838355,1.7929704 H 11.35649 c 0.04993,0 0.08987,0.04014 0.08987,0.08997 0,0.04983 -0.03994,0.08997 -0.08987,0.08997 H 9.5838355 c -0.04993,0 -0.08987,-0.04014 -0.08987,-0.08997 0,-0.04983 0.03994,-0.08997 0.08987,-0.08997 z m -0.423169,0.603011 h 2.1924295 c 0.04993,0 0.08986,0.04014 0.08986,0.08997 0,0.04983 -0.03994,0.08997 -0.08986,0.08997 H 9.1606665 c -0.04993,0 -0.08987,-0.04014 -0.08987,-0.08997 0,-0.04983 0.03994,-0.08997 0.08987,-0.08997 z m -0.01,0.606415 h 2.2057095 c 0.04992,0 0.08987,0.04014 0.08987,0.08997 0,0.04983 -0.03994,0.08987 -0.08987,0.08987 H 9.1506665 c -0.04993,0 -0.08987,-0.04014 -0.08987,-0.08987 0,-0.04983 0.03994,-0.08997 0.08987,-0.08997 z m 0.01398,0.606426 h 2.1991195 c 0.04992,0 0.08987,0.04014 0.08987,0.08997 0,0.04982 -0.03994,0.08996 -0.08987,0.08996 H 9.1646465 c -0.04993,0 -0.08987,-0.04014 -0.08987,-0.08996 0,-0.04983 0.03994,-0.08997 0.08987,-0.08997 z m 0.01,0.613075 h 1.7725555 c 0.04993,0 0.08987,0.04014 0.08987,0.08997 0,0.04983 -0.03994,0.08997 -0.08987,0.08997 H 9.1746465 c -0.04993,0 -0.08987,-0.04014 -0.08987,-0.08997 0,-0.04983 0.03994,-0.08997 0.08987,-0.08997 z"/>
		</g>
	</symbol>

	<symbol id="github" viewBox="0 0 5.2916737 5.1801619">
		<g transform="translate(-15.842544,-0.03242741)">
    	<path d="m 18.4981,0.03242741 c -1.467246,0 -2.655556,1.18833999 -2.655556,2.65557599 0,1.175069 0.760133,2.167572 1.81574,2.519304 0.132703,0.02345 0.182316,-0.05633 0.182316,-0.126127 0,-0.06284 -0.01002,-0.27199 -0.01002,-0.494638 -0.667121,0.12289 -0.839614,-0.162541 -0.892635,-0.311691 -0.03007,-0.07647 -0.159364,-0.312202 -0.272522,-0.375205 -0.09321,-0.04961 -0.225614,-0.172744 -0.01002,-0.176032 0.209177,0 0.358617,0.192649 0.408431,0.272271 0.239045,0.401796 0.620715,0.288668 0.773464,0.218909 0.02305,-0.172513 0.09321,-0.288658 0.169185,-0.35518 -0.590847,-0.06625 -1.208155,-0.295303 -1.208155,-1.311059 0,-0.288669 0.102735,-0.527654 0.272021,-0.713608 -0.02706,-0.06645 -0.119372,-0.338682 0.02706,-0.703845 0,0 0.222307,-0.06966 0.730366,0.272271 0.212484,-0.05954 0.437999,-0.0896 0.663914,-0.0896 0.225514,0 0.451429,0.03007 0.663914,0.0896 0.507958,-0.345257 0.730065,-0.272271 0.730065,-0.272271 0.146233,0.365163 0.05312,0.637384 0.02706,0.703845 0.169186,0.185954 0.272221,0.421431 0.272221,0.713608 0,1.018993 -0.620715,1.244588 -1.211563,1.311059 0.09622,0.08309 0.179209,0.242553 0.179209,0.491461 0,0.35513 -0.01002,0.640551 -0.01002,0.730105 0,0.06976 0.05011,0.152888 0.182316,0.126348 1.049393,-0.351953 1.809326,-1.347914 1.809326,-2.519525 0,-1.467236 -1.18831,-2.65557599 -2.655556,-2.65557599 z"/>
		</g>
	</symbol>

	<symbol id="medium" viewBox="0 0 5.2916827 4.1980199">
		<g transform="translate(-24.416589,-0.62030142)">
			<path d="m 29.285504,1.1139344 0.422767,-0.40441299 -3e-4,-0.08922 H 28.246453 L 27.204707,3.2193034 26.019643,0.62062641 h -1.532977 v 0.08893 l 0.493926,0.59464799 c 0.02395,0.02146 0.04192,0.0483 0.05389,0.07835 0.01198,0.02994 0.01597,0.06228 0.01198,0.09421 v 2.337562 c 0.01,0.04152 0.01,0.08423 -0.01,0.124504 -0.01198,0.04022 -0.03393,0.07705 -0.06387,0.107378 l -0.556004,0.674061 v 0.08853 h 1.574995 v -0.08853 l -0.555605,-0.674061 c -0.02994,-0.03034 -0.0519,-0.06697 -0.06487,-0.107128 -0.01297,-0.04012 -0.01697,-0.08284 -0.01098,-0.124754 v -2.021365 l 1.382374,3.016153 h 0.160783 l 1.187359,-3.016153 v 2.40415 c 0,0.06357 0,0.07615 -0.04192,0.118057 l -0.427358,0.414623 v 0.08853 h 2.073911 v -0.08853 L 29.28299,4.3250494 c -0.01796,-0.01367 -0.03194,-0.03184 -0.03992,-0.0527 -0.01,-0.02086 -0.01098,-0.04361 -0.01,-0.06567 v -2.974216 c -0.01,-0.02216 0,-0.04481 0.01,-0.06567 0.01,-0.02086 0.02196,-0.03902 0.03992,-0.0527 z"/>
		</g>
	</symbol>

	<symbol id="youtube" viewBox="0 0 5.2916666 3.7041769">
		<g transform="translate(-33.119985,-0.97558741)">
			<path d="m 35.765917,0.97558741 c 0,0 -1.654906,0 -2.067335,0.11066699 -0.227784,0.06091 -0.406836,0.239937 -0.467752,0.467711 -0.110646,0.412549 -0.110846,1.273765 -0.110846,1.273765 0,0 2e-4,0.861097 0.110846,1.273645 0.06092,0.227834 0.239968,0.406777 0.467752,0.467782 0.412429,0.110607 2.067335,0.110607 2.067335,0.110607 0,0 1.654807,0 2.067335,-0.110607 0.227785,-0.06102 0.406737,-0.239948 0.467752,-0.467782 0.110647,-0.412548 0.110647,-1.273645 0.110647,-1.273645 0,0 -5.99e-4,-0.861216 -0.110647,-1.273765 -0.06092,-0.227774 -0.239967,-0.406766 -0.467752,-0.467711 C 37.420724,0.97558741 35.765917,0.97558741 35.765917,0.97558741 Z m -0.529666,1.05854299 1.374795,0.7936 -1.374795,0.79371 z"/>
		</g>
	</symbol>

</svg>
