<?xml version="1.0" encoding="UTF-8" standalone="no"?>
<svg
   width="61.000385"
   height="61"
   viewBox="0 0 61.000387 61"
   fill="none"
   version="1.1"
   id="svg9"
   sodipodi:docname="css.svg"
   inkscape:version="1.4 (86a8ad7, 2024-10-11)"
   xmlns:inkscape="http://www.inkscape.org/namespaces/inkscape"
   xmlns:sodipodi="http://sodipodi.sourceforge.net/DTD/sodipodi-0.dtd"
   xmlns="http://www.w3.org/2000/svg"
   xmlns:svg="http://www.w3.org/2000/svg">
  <defs
     id="defs9" />
  <sodipodi:namedview
     id="namedview9"
     pagecolor="#505050"
     bordercolor="#eeeeee"
     borderopacity="1"
     inkscape:showpageshadow="0"
     inkscape:pageopacity="0"
     inkscape:pagecheckerboard="0"
     inkscape:deskcolor="#505050"
     inkscape:zoom="2.8284271"
     inkscape:cx="40.835417"
     inkscape:cy="33.057242"
     inkscape:window-width="1280"
     inkscape:window-height="697"
     inkscape:window-x="-8"
     inkscape:window-y="-8"
     inkscape:window-maximized="1"
     inkscape:current-layer="svg9" />
  <path
     id="rect1"
     style="fill:#f1e3c4;stroke-width:22.5295;stroke-linejoin:round;paint-order:fill markers stroke"
     d="m 30.982183,13.316266 c -2.579796,0.02828 -5.160251,0.913396 -6.588713,2.604975 -2.939863,2.740811 -3.133881,9.505311 -1.03847,12.587786 0.929058,1.388584 2.448698,2.587102 4.558708,3.596509 1.477982,0.738734 4.27656,1.835282 5.054475,3.077275 1.115196,1.289318 0.966471,4.619498 0.187746,5.77319 -0.409647,0.630231 -1.116897,0.947532 -2.123876,0.947532 -2.257519,0.173718 -3.198711,-2.32189 -3.021538,-5.063276 h -6.377499 c -0.180236,6.287877 2.737477,10.92304 9.258227,10.836467 v -0.003 c 9.043862,0.381483 11.56855,-9.629781 7.885334,-16.184296 -1.234784,-2.151556 -4.640222,-3.928254 -7.319162,-4.969403 -2.069052,-0.951695 -2.974602,-1.884733 -2.974602,-4.162681 0,-2.144632 0.895272,-3.218084 2.690049,-3.218084 1.00698,0 1.691602,0.331917 2.053472,0.994466 0.516497,0.782594 0.644541,2.928616 0.592573,4.259489 h 6.136949 c 0.149536,-3.237722 -0.621306,-6.755058 -2.384962,-8.542444 -1.429633,-1.734288 -4.009321,-2.592292 -6.588711,-2.534572 z m 20.593392,0 c -2.579375,0.02828 -5.157317,0.913396 -6.585779,2.604975 -2.940268,2.740811 -3.133881,9.505311 -1.03847,12.587786 0.929057,1.388584 2.445825,2.587102 4.555775,3.596509 1.477981,0.738734 4.276441,1.835282 5.054476,3.077275 1.112658,1.289318 0.966471,4.619498 0.187746,5.77319 -0.409647,0.630231 -1.116898,0.947532 -2.123878,0.947532 -2.257458,0.173718 -3.198724,-2.32189 -3.021538,-5.063276 H 42.22641 c -0.180642,6.287877 2.737475,10.92304 9.258226,10.836467 l -0.003,-0.003 c 9.043861,0.381483 11.571423,-9.629781 7.888266,-16.184296 -1.235248,-2.151556 -4.640161,-3.928254 -7.319162,-4.969403 -2.06863,-0.951695 -2.9746,-1.884733 -2.9746,-4.162681 0,-2.144632 0.894881,-3.218084 2.690048,-3.218084 1.006589,0 1.694537,0.331917 2.056406,0.994466 0.51498,0.782594 0.641608,2.928616 0.58964,4.259489 h 6.136949 C 60.69831,21.155489 59.927934,17.638153 58.164217,15.850767 56.734314,14.116479 54.1553,13.258475 51.575505,13.316195 Z m -41.8409642,0.05867 c -2.690716,0.01789 -5.391067,0.847954 -7.017008,2.414297 -1.81047204,1.609049 -2.71644904,3.959924 -2.71644904,7.052209 v 15.427445 c -0.06891,6.098 3.56524404,9.416637 9.44890504,9.416637 6.4479202,0.07849 10.2362332,-4.417579 9.7745282,-10.836467 h -6.75299 c 0.05316,1.258152 -0.05117,2.9982 -0.709914,3.784257 -0.471799,0.665436 -1.164436,0.994467 -2.0769422,0.994467 -1.952498,-0.03117 -2.927665,-1.451154 -2.927665,-4.259489 V 23.976717 c 0,-1.483236 0.21182,-2.604629 0.636576,-3.361828 0.691824,-1.395511 3.3071382,-1.551897 4.2976262,-0.211213 0.779942,0.739306 0.832287,2.702167 0.780319,3.998403 h 6.75299 c 0.175911,-3.299476 -0.563404,-6.835663 -2.525771,-8.565913 -1.592492,-1.685232 -4.273774,-2.461233 -6.9642052,-2.461233 z"
     sodipodi:nodetypes="cccccccccccccssccccccccccccccccccsscccccccsccccccsscccccc" />
  <path
     id="bg-31-2-0"
     style="fill:#f1e3c4;fill-opacity:1;stroke-width:0.061"
     d="m 186,-142 v 51.240001 A 9.7600304,9.7600304 0 0 0 195.76023,-81 h 41.47992 a 9.7600304,9.7600304 0 0 0 9.76023,-9.759999 V -132.24154 A 9.7600304,9.7600304 0 0 0 237.24015,-142 Z m 36.18251,33.24279 c 1.71734,-0.0384 3.43471,0.53257 4.38655,1.68725 1.17423,1.19003 1.6877,3.53205 1.58814,5.6877 h -4.08755 c 0.0346,-0.88609 -0.0499,-2.3155 -0.39378,-2.83655 -0.24093,-0.44112 -0.69719,-0.66207 -1.36763,-0.66207 -1.19495,0 -1.79096,0.71394 -1.79096,2.14183 0,1.51664 0.60311,2.13913 1.98067,2.772758 1.78362,0.69319 4.0517,1.876302 4.87381,3.308793 2.45226,4.36395 0.76972,11.029568 -5.25162,10.775578 l 0.001,0.0015 c -4.34147,0.05764 -6.28413,-3.029827 -6.16413,-7.216252 h 4.24579 c -0.11796,1.825196 0.50879,3.488239 2.01183,3.372579 0.67044,0 1.14204,-0.211338 1.41478,-0.630941 0.51847,-0.76812 0.61645,-2.985254 -0.12604,-3.843673 -0.51793,-0.82691 -2.38147,-1.556988 -3.3655,-2.048832 -1.40483,-0.672056 -2.41557,-1.470147 -3.03413,-2.394657 -1.39511,-2.052293 -1.26673,-6.555723 0.69061,-8.380533 0.95106,-1.12625 2.6689,-1.71569 4.38651,-1.73452 z m 13.71053,0 c 1.71761,-0.0384 3.43472,0.53257 4.38674,1.68725 1.17427,1.19003 1.68725,3.53205 1.58796,5.6877 h -4.08733 c 0.0346,-0.88609 -0.0496,-2.3155 -0.39247,-2.83655 -0.24093,-0.44112 -0.69873,-0.66207 -1.36891,-0.66207 -1.19521,0 -1.79122,0.71394 -1.79122,2.14183 0,1.51664 0.60335,2.13913 1.98063,2.772758 1.78366,0.69319 4.05166,1.876302 4.87408,3.308793 2.45222,4.36395 0.76973,11.029568 -5.25161,10.775578 l 0.001,0.0015 c -4.34147,0.05764 -6.28436,-3.029827 -6.16409,-7.216252 h 4.24552 c -0.11797,1.825196 0.50883,3.488239 2.01183,3.372579 0.67044,0 1.1423,-0.211338 1.41504,-0.630941 0.51847,-0.76812 0.61515,-2.985254 -0.12565,-3.843673 -0.51801,-0.82691 -2.38048,-1.556988 -3.36451,-2.048832 -1.40479,-0.672056 -2.4153,-1.470147 -3.03386,-2.394657 -1.39511,-2.052293 -1.26596,-6.555723 0.69165,-8.380533 0.95106,-1.12625 2.66787,-1.71569 4.3852,-1.73452 z m -27.85857,0.0384 c 1.79127,0 3.57673,0.51759 4.637,1.6396 1.30653,1.15199 1.79987,3.50553 1.68275,5.7023 h -4.49759 c 0.0346,-0.86302 8.1e-4,-2.17063 -0.51847,-2.66286 -0.65946,-0.89262 -2.40142,-0.78695 -2.86203,0.14218 -0.2828,0.50413 -0.42382,1.24958 -0.42382,2.23711 v 8.916568 c 0,1.86977 0.64973,2.815413 1.94969,2.836164 0.60754,0 1.06945,-0.219024 1.38357,-0.662067 0.43859,-0.523351 0.50645,-1.683024 0.47106,-2.520693 h 4.49628 c 0.3074,4.273651 -2.21513,7.268126 -6.50811,7.215868 -3.9173,0 -6.33601,-2.209833 -6.29013,-6.269839 V -102.4159 c 0,-2.05882 0.60336,-3.62426 1.80876,-4.69556 1.08254,-1.04286 2.87958,-1.59503 4.67104,-1.60694 z"
     inkscape:export-filename="E:\Descargas\ss.png"
     inkscape:export-xdpi="96"
     inkscape:export-ydpi="96" />
</svg>
