<?xml version="1.0" encoding="UTF-8" standalone="no"?>
<svg
   width="61.000385"
   height="61"
   viewBox="0 0 61.000387 61"
   fill="none"
   version="1.1"
   id="svg9"
   sodipodi:docname="css.svg"
   inkscape:version="1.4 (86a8ad7, 2024-10-11)"
   xmlns:inkscape="http://www.inkscape.org/namespaces/inkscape"
   xmlns:sodipodi="http://sodipodi.sourceforge.net/DTD/sodipodi-0.dtd"
   xmlns="http://www.w3.org/2000/svg"
   xmlns:svg="http://www.w3.org/2000/svg">
  <defs
     id="defs9" />
  <sodipodi:namedview
     id="namedview9"
     pagecolor="#505050"
     bordercolor="#eeeeee"
     borderopacity="1"
     inkscape:showpageshadow="0"
     inkscape:pageopacity="0"
     inkscape:pagecheckerboard="0"
     inkscape:deskcolor="#505050"
     inkscape:zoom="2.8284271"
     inkscape:cx="40.835417"
     inkscape:cy="33.057242"
     inkscape:window-width="1280"
     inkscape:window-height="697"
     inkscape:window-x="-8"
     inkscape:window-y="-8"
     inkscape:window-maximized="1"
     inkscape:current-layer="svg9" />
  <path
     id="bg-31-2-0"
     style="fill:#f1e3c4;fill-opacity:1;stroke-width:0.061"
     d="m 186,-142 v 51.240001 A 9.7600304,9.7600304 0 0 0 195.76023,-81 h 41.47992 a 9.7600304,9.7600304 0 0 0 9.76023,-9.759999 V -132.24154 A 9.7600304,9.7600304 0 0 0 237.24015,-142 Z m 36.18251,33.24279 c 1.71734,-0.0384 3.43471,0.53257 4.38655,1.68725 1.17423,1.19003 1.6877,3.53205 1.58814,5.6877 h -4.08755 c 0.0346,-0.88609 -0.0499,-2.3155 -0.39378,-2.83655 -0.24093,-0.44112 -0.69719,-0.66207 -1.36763,-0.66207 -1.19495,0 -1.79096,0.71394 -1.79096,2.14183 0,1.51664 0.60311,2.13913 1.98067,2.772758 1.78362,0.69319 4.0517,1.876302 4.87381,3.308793 2.45226,4.36395 0.76972,11.029568 -5.25162,10.775578 l 0.001,0.0015 c -4.34147,0.05764 -6.28413,-3.029827 -6.16413,-7.216252 h 4.24579 c -0.11796,1.825196 0.50879,3.488239 2.01183,3.372579 0.67044,0 1.14204,-0.211338 1.41478,-0.630941 0.51847,-0.76812 0.61645,-2.985254 -0.12604,-3.843673 -0.51793,-0.82691 -2.38147,-1.556988 -3.3655,-2.048832 -1.40483,-0.672056 -2.41557,-1.470147 -3.03413,-2.394657 -1.39511,-2.052293 -1.26673,-6.555723 0.69061,-8.380533 0.95106,-1.12625 2.6689,-1.71569 4.38651,-1.73452 z m 13.71053,0 c 1.71761,-0.0384 3.43472,0.53257 4.38674,1.68725 1.17427,1.19003 1.68725,3.53205 1.58796,5.6877 h -4.08733 c 0.0346,-0.88609 -0.0496,-2.3155 -0.39247,-2.83655 -0.24093,-0.44112 -0.69873,-0.66207 -1.36891,-0.66207 -1.19521,0 -1.79122,0.71394 -1.79122,2.14183 0,1.51664 0.60335,2.13913 1.98063,2.772758 1.78366,0.69319 4.05166,1.876302 4.87408,3.308793 2.45222,4.36395 0.76973,11.029568 -5.25161,10.775578 l 0.001,0.0015 c -4.34147,0.05764 -6.28436,-3.029827 -6.16409,-7.216252 h 4.24552 c -0.11797,1.825196 0.50883,3.488239 2.01183,3.372579 0.67044,0 1.1423,-0.211338 1.41504,-0.630941 0.51847,-0.76812 0.61515,-2.985254 -0.12565,-3.843673 -0.51801,-0.82691 -2.38048,-1.556988 -3.36451,-2.048832 -1.40479,-0.672056 -2.4153,-1.470147 -3.03386,-2.394657 -1.39511,-2.052293 -1.26596,-6.555723 0.69165,-8.380533 0.95106,-1.12625 2.66787,-1.71569 4.3852,-1.73452 z m -27.85857,0.0384 c 1.79127,0 3.57673,0.51759 4.637,1.6396 1.30653,1.15199 1.79987,3.50553 1.68275,5.7023 h -4.49759 c 0.0346,-0.86302 8.1e-4,-2.17063 -0.51847,-2.66286 -0.65946,-0.89262 -2.40142,-0.78695 -2.86203,0.14218 -0.2828,0.50413 -0.42382,1.24958 -0.42382,2.23711 v 8.916568 c 0,1.86977 0.64973,2.815413 1.94969,2.836164 0.60754,0 1.06945,-0.219024 1.38357,-0.662067 0.43859,-0.523351 0.50645,-1.683024 0.47106,-2.520693 h 4.49628 c 0.3074,4.273651 -2.21513,7.268126 -6.50811,7.215868 -3.9173,0 -6.33601,-2.209833 -6.29013,-6.269839 V -102.4159 c 0,-2.05882 0.60336,-3.62426 1.80876,-4.69556 1.08254,-1.04286 2.87958,-1.59503 4.67104,-1.60694 z"
     inkscape:export-filename="E:\Descargas\ss.png"
     inkscape:export-xdpi="96"
     inkscape:export-ydpi="96" />
  <path
     id="bg-31-2"
     style="opacity:1;fill:#f1e3c4;fill-opacity:1;stroke-width:0.0499997"
     d="M 5.5001929,5.5001597 V 47.499892 a 7.9999737,7.9999737 0 0 0 8.0001381,7.999948 h 33.99972 a 7.9999737,7.9999737 0 0 0 8.000141,-7.999948 V 13.498849 A 7.9999737,7.9999737 0 0 0 47.500051,5.5001597 Z M 35.157797,32.748175 c 1.407649,-0.0315 2.815324,0.436533 3.595511,1.382983 0.962476,0.975427 1.383357,2.8951 1.301749,4.662018 h -3.350436 c 0.02833,-0.726295 -0.04092,-1.897941 -0.322765,-2.325025 -0.197482,-0.361572 -0.571463,-0.542674 -1.121001,-0.542674 -0.97946,0 -1.467992,0.585194 -1.467992,1.75558 0,1.243142 0.494356,1.753374 1.623482,2.272742 1.461974,0.568184 3.321054,1.537942 3.994909,2.712108 2.010037,3.576984 0.63092,9.040572 -4.304574,8.832384 l 8.34e-4,0.0013 c -3.558557,0.04724 -5.150894,-2.483449 -5.052531,-5.914923 h 3.480134 c -0.09669,1.496053 0.417038,2.859194 1.64903,2.764392 0.549538,0 0.936086,-0.173228 1.159642,-0.517162 0.424973,-0.629602 0.505289,-2.446913 -0.103307,-3.150531 -0.42453,-0.677791 -1.952013,-1.276212 -2.758593,-1.679359 -1.151487,-0.550863 -1.979955,-1.205031 -2.486976,-1.962822 -1.14352,-1.682195 -1.038293,-5.373509 0.566076,-6.869248 0.779554,-0.923143 2.187607,-1.40629 3.595475,-1.421723 z m 11.23807,0 c 1.407866,-0.0315 2.815324,0.436533 3.59566,1.382983 0.962519,0.975427 1.382983,2.8951 1.3016,4.662018 h -3.350244 c 0.02833,-0.726295 -0.04066,-1.897941 -0.321699,-2.325025 -0.197482,-0.361572 -0.572721,-0.542674 -1.122042,-0.542674 -0.979679,0 -1.468208,0.585194 -1.468208,1.75558 0,1.243142 0.494547,1.753374 1.623456,2.272742 1.462,0.568184 3.321012,1.537942 3.995124,2.712108 2.009996,3.576984 0.630922,9.040572 -4.304571,8.832384 l 8.32e-4,0.0013 c -3.55856,0.04724 -5.151083,-2.483449 -5.052501,-5.914923 h 3.479911 c -0.09669,1.496053 0.417073,2.859194 1.649032,2.764392 0.549537,0 0.93631,-0.173228 1.159868,-0.517162 0.424971,-0.629602 0.504213,-2.446913 -0.102992,-3.150531 -0.424597,-0.677791 -1.951204,-1.276212 -2.757774,-1.679359 -1.151459,-0.550863 -1.979737,-1.205031 -2.486758,-1.962822 -1.143518,-1.682195 -1.03766,-5.373509 0.566921,-6.869248 0.779562,-0.923143 2.186761,-1.40629 3.594401,-1.421723 z m -22.83475,0.0315 c 1.468243,0 2.931729,0.424249 3.800795,1.343928 1.070923,0.944247 1.475297,2.873368 1.379297,4.673987 h -3.686527 c 0.02835,-0.707398 6.62e-4,-1.779201 -0.424974,-2.182664 -0.540531,-0.731649 -1.968364,-0.645036 -2.345906,0.116535 -0.231808,0.413226 -0.347399,1.024245 -0.347399,1.833689 v 7.308615 c 0,1.532588 0.532563,2.307701 1.5981,2.324709 0.497982,0 0.876593,-0.179526 1.134072,-0.542674 0.359493,-0.428973 0.415114,-1.379519 0.386107,-2.066129 h 3.685456 c 0.251968,3.502971 -1.815673,5.957443 -5.334484,5.914609 -3.210877,0 -5.193417,-1.811327 -5.155809,-5.13918 v -8.419167 c 0,-1.687548 0.494547,-2.97069 1.482572,-3.848794 0.887332,-0.854798 2.360299,-1.307394 3.8287,-1.317157 z"
     inkscape:export-filename="E:\Descargas\ss.png"
     inkscape:export-xdpi="96"
     inkscape:export-ydpi="96" />
</svg>
