<?xml version="1.0" encoding="UTF-8" standalone="no"?>
<svg
   id="Layer_1"
   data-name="Layer 1"
   version="1.1"
   viewBox="0 0 61 61"
   sodipodi:docname="git.svg"
   width="61"
   height="61"
   inkscape:version="1.4 (86a8ad7, 2024-10-11)"
   xmlns:inkscape="http://www.inkscape.org/namespaces/inkscape"
   xmlns:sodipodi="http://sodipodi.sourceforge.net/DTD/sodipodi-0.dtd"
   xmlns="http://www.w3.org/2000/svg"
   xmlns:svg="http://www.w3.org/2000/svg">
  <sodipodi:namedview
     id="namedview6"
     pagecolor="#505050"
     bordercolor="#eeeeee"
     borderopacity="1"
     inkscape:showpageshadow="0"
     inkscape:pageopacity="0"
     inkscape:pagecheckerboard="0"
     inkscape:deskcolor="#505050"
     showguides="false"
     inkscape:zoom="1.221"
     inkscape:cx="14.332514"
     inkscape:cy="27.436527"
     inkscape:window-width="1280"
     inkscape:window-height="697"
     inkscape:window-x="-8"
     inkscape:window-y="-8"
     inkscape:window-maximized="1"
     inkscape:current-layer="Layer_1" />
  <defs
     id="defs3">
    <style
       id="style1">
      .cls-1 {
        fill: #f03c2e;
      }

      .cls-1, .cls-2, .cls-3 {
        stroke-width: 0px;
      }

      .cls-4 {
        clip-path: url(#clippath);
      }

      .cls-2 {
        fill: none;
      }

      .cls-5 {
        clip-path: url(#clippath-1);
      }

      .cls-6 {
        clip-path: url(#clippath-2);
      }

      .cls-3 {
        fill: #362701;
      }
    </style>
    <clipPath
       id="clippath">
      <rect
         class="cls-2"
         x="582.09998"
         y="74.800003"
         width="41.200001"
         height="112.4"
         id="rect1" />
    </clipPath>
    <clipPath
       id="clippath-1">
      <rect
         class="cls-2"
         x="621.70001"
         y="88.400002"
         width="58.299999"
         height="98.900002"
         id="rect2" />
    </clipPath>
    <clipPath
       id="clippath-2">
      <rect
         class="cls-2"
         x="320"
         y="74.800003"
         width="151.7"
         height="150.39999"
         id="rect3" />
    </clipPath>
  </defs>
  <g
     class="cls-6"
     clip-path="url(#clippath-2)"
     id="g6"
     style="fill:#f1e3c4;fill-opacity:1"
     transform="matrix(0.40599002,0,0,0.40599002,-129.91681,-30.428952)">
    <path
       class="cls-1"
       d="M 467.4,143.4 401.8,77.8 c -3.8,-3.8 -9.9,-3.8 -13.7,0 0,0 0,0 0,0 l -13.6,13.6 17.3,17.3 c 4.1,-1.4 8.7,-0.3 11.8,2.7 3.1,3.1 4.2,7.7 2.7,11.9 L 423,140 c 4.2,-1.4 8.8,-0.4 11.9,2.7 4.5,4.5 4.5,11.8 0,16.3 0,0 0,0 0,0 -4.5,4.5 -11.8,4.5 -16.3,0 0,0 0,0 0,0 -3.3,-3.3 -4.3,-8.2 -2.5,-12.5 L 400.6,131 v 40.9 c 1.1,0.6 2.2,1.3 3,2.2 4.5,4.5 4.5,11.8 0,16.3 -4.5,4.5 -11.8,4.5 -16.3,0 -4.5,-4.5 -4.5,-11.8 0,-16.3 0,0 0,0 0,0 1.1,-1.1 2.4,-1.9 3.8,-2.5 v -41.3 c -1.4,-0.6 -2.7,-1.4 -3.8,-2.5 -3.3,-3.3 -4.3,-8.3 -2.5,-12.6 l -17,-17 -45,45 c -3.8,3.8 -3.8,9.9 0,13.7 0,0 0,0 0,0 l 65.6,65.6 c 3.8,3.8 9.9,3.8 13.7,0 0,0 0,0 0,0 l 65.3,-65.3 c 3.8,-3.8 3.8,-9.9 0,-13.7"
       id="path6"
       style="fill:#f1e3c4;fill-opacity:1" />
  </g>
</svg>
