<?xml version="1.0" encoding="UTF-8" standalone="no"?>
<svg
   width="61.000351"
   height="61"
   viewBox="0 0 61.000352 61"
   fill="none"
   version="1.1"
   id="svg9"
   sodipodi:docname="js.svg"
   inkscape:version="1.4 (86a8ad7, 2024-10-11)"
   xmlns:inkscape="http://www.inkscape.org/namespaces/inkscape"
   xmlns:sodipodi="http://sodipodi.sourceforge.net/DTD/sodipodi-0.dtd"
   xmlns="http://www.w3.org/2000/svg"
   xmlns:svg="http://www.w3.org/2000/svg">
  <defs
     id="defs9" />
  <sodipodi:namedview
     id="namedview9"
     pagecolor="#505050"
     bordercolor="#eeeeee"
     borderopacity="1"
     inkscape:showpageshadow="0"
     inkscape:pageopacity="0"
     inkscape:pagecheckerboard="0"
     inkscape:deskcolor="#505050"
     inkscape:zoom="9.4261753"
     inkscape:cx="30.500175"
     inkscape:cy="30.500175"
     inkscape:window-width="1280"
     inkscape:window-height="697"
     inkscape:window-x="-8"
     inkscape:window-y="-8"
     inkscape:window-maximized="1"
     inkscape:current-layer="svg9" />
  <path
     id="rect1-42-3"
     style="opacity:1;fill:#f1e3c4;fill-opacity:1;stroke-width:0.0793645"
     d="M 5.5001756,5.5001418 V 55.499858 H 55.500175 V 5.5001418 Z M 43.556177,28.190092 c 2.987357,0 5.134112,1.039363 6.681637,3.761552 l -3.65863,2.34802 c -0.805537,-1.443772 -1.673749,-2.012588 -3.023007,-2.012588 -1.376017,0 -2.24833,0.873066 -2.24833,2.012588 0,1.409755 0.872687,1.981407 2.888733,2.854472 l 1.173952,0.503933 c 3.992228,1.711802 6.246799,3.456988 6.246799,7.381057 0,4.230219 -3.32294,6.547054 -7.785848,6.547054 -4.363409,0 -7.182417,-2.07873 -8.56171,-4.803756 l 3.817612,-2.218571 c 1.007052,1.644091 2.317687,2.853534 4.635249,2.853534 1.946889,0 3.190473,-0.974168 3.190473,-2.318729 0,-1.611016 -1.278359,-2.180776 -3.421372,-3.118094 L 42.317791,41.476945 C 38.927136,40.033174 36.67474,38.22279 36.67474,34.397932 c 0,-3.524391 2.685527,-6.20595 6.881437,-6.20595 z m -15.525012,0.267714 h 4.698398 v 16.040223 c 0,4.865489 -2.852076,7.078385 -7.015586,7.078385 -3.761612,0 -5.940874,-1.946447 -7.048993,-4.291 l 3.82527,-2.314946 c 0.738071,1.309601 1.409566,2.416362 3.023858,2.416362 1.543549,0 2.517053,-0.604715 2.517053,-2.951791 z"
     inkscape:export-filename="E:\Descargas\js.png"
     inkscape:export-xdpi="96"
     inkscape:export-ydpi="96" />
</svg>
