<?xml version="1.0" encoding="UTF-8" standalone="no"?>
<svg
   width="61"
   height="61"
   viewBox="0 0 61.000001 61"
   fill="none"
   version="1.1"
   id="svg9"
   sodipodi:docname="mongodb.svg"
   inkscape:version="1.4 (86a8ad7, 2024-10-11)"
   xmlns:inkscape="http://www.inkscape.org/namespaces/inkscape"
   xmlns:sodipodi="http://sodipodi.sourceforge.net/DTD/sodipodi-0.dtd"
   xmlns="http://www.w3.org/2000/svg"
   xmlns:svg="http://www.w3.org/2000/svg">
  <defs
     id="defs9" />
  <sodipodi:namedview
     id="namedview9"
     pagecolor="#505050"
     bordercolor="#eeeeee"
     borderopacity="1"
     inkscape:showpageshadow="0"
     inkscape:pageopacity="0"
     inkscape:pagecheckerboard="0"
     inkscape:deskcolor="#505050"
     inkscape:zoom="1"
     inkscape:cx="14.5"
     inkscape:cy="30.5"
     inkscape:window-width="1280"
     inkscape:window-height="697"
     inkscape:window-x="-8"
     inkscape:window-y="-8"
     inkscape:window-maximized="1"
     inkscape:current-layer="svg9" />
  <path
     d="m 35.798414,6.7988655 c -2.56015,-3.037539 -4.76474,-6.122537 -5.21512,-6.76327 -0.0474,-0.04746 -0.11856,-0.04746 -0.16596,0 -0.4504,0.640733 -2.65497,3.725731 -5.215139,6.76327 C 3.2275442,34.824829 28.663174,53.738389 28.663174,53.738389 l 0.21333,0.142413 C 29.066124,56.799547 29.540244,61 29.540244,61 h 0.9482 0.94821 c 0,0 0.47411,-4.176721 0.66376,-7.119198 l 0.21333,-0.166149 c 0.0237,0.02373 25.45941,-18.889825 3.48467,-46.9157875 z m -5.30997,46.5122865 c 0,0 -1.13783,-0.972914 -1.44601,-1.47112 v -0.04771 l 1.3749,-30.517659 c 0,-0.09494 0.14225,-0.09494 0.14225,0 l 1.37487,30.517659 v 0.04771 c -0.30816,0.498206 -1.44601,1.47112 -1.44601,1.47112 z"
     fill="#001e2b"
     id="path1"
     style="fill:#f1e3c4;fill-opacity:1;stroke-width:0.237354" />
</svg>
