<?xml version="1.0" encoding="UTF-8" standalone="no"?>
<svg
   width="61"
   height="61"
   viewBox="0 0 61.000002 61"
   fill="none"
   version="1.1"
   id="svg9"
   sodipodi:docname="mysql.svg"
   inkscape:version="1.4 (86a8ad7, 2024-10-11)"
   xmlns:inkscape="http://www.inkscape.org/namespaces/inkscape"
   xmlns:sodipodi="http://sodipodi.sourceforge.net/DTD/sodipodi-0.dtd"
   xmlns="http://www.w3.org/2000/svg"
   xmlns:svg="http://www.w3.org/2000/svg">
  <defs
     id="defs9" />
  <sodipodi:namedview
     id="namedview9"
     pagecolor="#505050"
     bordercolor="#eeeeee"
     borderopacity="1"
     inkscape:showpageshadow="0"
     inkscape:pageopacity="0"
     inkscape:pagecheckerboard="0"
     inkscape:deskcolor="#505050"
     inkscape:zoom="9.8090992"
     inkscape:cx="30.532875"
     inkscape:cy="30.532875"
     inkscape:window-width="1280"
     inkscape:window-height="697"
     inkscape:window-x="-8"
     inkscape:window-y="-8"
     inkscape:window-maximized="1"
     inkscape:current-layer="svg9" />
  <path
     id="path1297-0-3-0-4-8-0-4-0-4-3-3-1-5-3"
     style="opacity:1;fill:#f1e3c4;fill-opacity:1;stroke-width:0.0814859"
     d="M 5.8360979,2.9394117 C 4.5035632,2.9047097 3.3405358,3.4220398 2.7404543,4.8970067 1.711615,7.3806334 4.2635446,9.8236307 5.1399069,11.084017 c 0.646957,0.877398 1.4861399,1.871133 1.9406763,2.862426 0.2663122,0.649646 0.3430588,1.338162 0.6112079,2.024263 0.6088761,1.680165 1.1808022,3.553383 1.982355,5.120024 0.4175849,0.802058 0.8742149,1.641968 1.4070769,2.364184 0.306586,0.422553 0.838245,0.611437 0.952815,1.30066 -0.531198,0.762831 -0.573549,1.908983 -0.877747,2.864518 -1.370669,4.315527 -0.838246,9.66192 1.105007,12.830944 0.60793,0.954834 2.057872,3.055488 4.000669,2.251694 1.713682,-0.686459 1.333718,-2.86383 1.828262,-4.772118 0.113539,-0.461101 0.03784,-0.763877 0.26457,-1.069078 v 0.07987 c 0.53288,1.067672 1.069029,2.095777 1.563582,3.168674 1.182427,1.869398 3.237701,3.818659 4.95301,5.11585 0.911403,0.689909 1.634326,1.871473 2.776773,2.293005 v -0.114595 h -0.07574 c -0.229515,-0.34374 -0.572418,-0.494784 -0.877554,-0.760737 -0.685321,-0.688185 -1.444968,-1.530177 -1.980188,-2.293357 -1.599113,-2.137795 -3.011194,-4.506486 -4.265365,-6.95018 -0.611197,-1.186785 -1.143382,-2.483967 -1.638596,-3.667273 -0.229517,-0.455896 -0.229517,-1.145119 -0.60884,-1.373589 -0.572918,0.839229 -1.407823,1.565595 -1.826114,2.593342 -0.724144,1.644069 -0.800856,3.669011 -1.069518,5.770359 -0.149318,0.04167 -0.07326,-7.06e-4 -0.149318,0.07647 -1.21746,-0.305556 -1.634567,-1.565245 -2.092866,-2.630851 -1.142429,-2.714853 -1.33562,-7.068221 -0.344071,-10.200109 0.266304,-0.800663 1.411595,-3.320056 0.953056,-4.084274 C 13.443551,23.155678 12.681897,22.739715 12.263374,22.164385 11.769305,21.439056 11.233101,20.522779 10.893879,19.718958 9.9794186,17.581167 9.5189976,15.213156 8.5318553,13.075021 8.0745098,12.080589 7.2736538,11.050418 6.628554,10.135845 5.9032337,9.1046209 5.10336,8.3772076 4.5311878,7.1567482 4.3419528,6.7355905 4.0745317,6.0480941 4.3773723,5.5911617 4.4531101,5.2856119 4.6093124,5.1696469 4.9130803,5.0929076 5.4057141,4.6727791 6.8168232,5.2074901 7.3106239,5.4366558 c 1.4104289,0.5711725 2.5900569,1.1090029 3.7691591,1.9093264 0.533598,0.382985 1.105979,1.1083043 1.790612,1.3010177 h 0.800369 c 1.218404,0.2638693 2.590736,0.072892 3.734109,0.4190903 2.017378,0.6485819 3.84561,1.6034268 5.484694,2.6350028 4.987812,3.170059 9.101388,7.676903 11.880567,13.06045 0.457833,0.877069 0.649087,1.678788 1.067397,2.593352 0.799882,1.875302 1.790834,3.784965 2.589045,5.616193 0.799222,1.795084 1.564053,3.626295 2.708161,5.117934 0.569576,0.800671 2.854897,1.220111 3.883738,1.64058 0.759866,0.343746 1.943026,0.649994 2.628825,1.069416 1.295105,0.800681 2.585988,1.717667 3.806788,2.597859 0.607893,0.458317 2.513538,1.411071 2.628584,2.175985 v 0.0018 c -3.048555,-0.07648 -5.410123,0.229158 -7.390118,1.069764 -0.5712,0.229159 -1.483284,0.229159 -1.561655,0.954498 0.306595,0.30554 0.341655,0.799625 0.610748,1.221847 0.455922,0.763868 1.255833,1.794745 1.980674,2.330499 0.800166,0.611447 1.600041,1.218716 2.439222,1.753416 1.484065,0.920484 3.159815,1.453447 4.604789,2.370094 0.840845,0.53402 1.675796,1.22081 2.516154,1.795093 0.417595,0.305551 0.682283,0.803454 1.217514,0.992339 V 57.947644 C 58.229507,57.603927 58.156935,57.10985 57.89111,56.726177 57.512137,56.347029 57.13075,55.999122 56.749159,55.619259 55.644124,54.129714 54.27016,52.83391 52.788032,51.764494 c -1.219865,-0.842359 -3.886327,-1.989543 -4.379935,-3.39819 0,0 -0.0402,-0.04159 -0.07812,-0.07648 0.838239,-0.07986 1.829896,-0.383324 2.628586,-0.614918 1.29348,-0.343739 2.473795,-0.267358 3.806531,-0.608655 0.610557,-0.152779 1.220818,-0.347229 1.832742,-0.53402 v -0.347189 c -0.689328,-0.685743 -1.182439,-1.602739 -1.905657,-2.251338 -1.941125,-1.679817 -4.076388,-3.322141 -6.285294,-4.699189 -1.182196,-0.763878 -2.706021,-1.256566 -3.963,-1.907252 -0.454987,-0.229159 -1.216329,-0.343747 -1.484066,-0.727752 -0.685782,-0.839883 -1.067848,-1.94471 -1.561658,-2.939132 -1.103429,-2.097935 -2.172453,-4.427378 -3.122919,-6.64574 -0.68533,-1.48816 -1.104816,-2.977364 -1.942804,-4.35267 C 32.407724,16.168375 28.144324,12.237211 21.593885,8.3796551 20.184172,7.5765591 18.508394,7.2342072 16.719691,6.8140685 15.766173,6.7724817 14.813588,6.6994981 13.861707,6.6613079 13.251205,6.3939501 12.640447,5.6668856 12.108283,5.3231383 10.750879,4.4644738 8.0569588,2.9797766 5.8352993,2.9464521 Z m 9.3939911,9.4393513 c -0.645092,3.59e-4 -1.100528,0.07986 -1.559795,0.190989 v 0.07978 h 0.07326 c 0.306577,0.609701 0.841781,1.031923 1.219376,1.565943 0.306936,0.61074 0.573322,1.220104 0.877998,1.832247 0.04022,-0.0347 0.07326,-0.07987 0.07326,-0.07987 0.537361,-0.380552 0.802488,-0.991632 0.802488,-1.909672 -0.229519,-0.270833 -0.26736,-0.534023 -0.45877,-0.80242 -0.22501,-0.380202 -0.720583,-0.5722 -1.025506,-0.877749 z" />
</svg>
