<?xml version="1.0" encoding="UTF-8" standalone="no"?>
<svg
   width="61"
   height="61"
   viewBox="0 0 61.000002 61"
   fill="none"
   version="1.1"
   id="svg9"
   sodipodi:docname="mysql.svg"
   inkscape:version="1.4 (86a8ad7, 2024-10-11)"
   xmlns:inkscape="http://www.inkscape.org/namespaces/inkscape"
   xmlns:sodipodi="http://sodipodi.sourceforge.net/DTD/sodipodi-0.dtd"
   xmlns="http://www.w3.org/2000/svg"
   xmlns:svg="http://www.w3.org/2000/svg">
  <defs
     id="defs9" />
  <sodipodi:namedview
     id="namedview9"
     pagecolor="#505050"
     bordercolor="#eeeeee"
     borderopacity="1"
     inkscape:showpageshadow="0"
     inkscape:pageopacity="0"
     inkscape:pagecheckerboard="0"
     inkscape:deskcolor="#505050"
     inkscape:zoom="9.4262295"
     inkscape:cx="30.5"
     inkscape:cy="30.5"
     inkscape:window-width="1280"
     inkscape:window-height="697"
     inkscape:window-x="-8"
     inkscape:window-y="-8"
     inkscape:window-maximized="1"
     inkscape:current-layer="svg9" />
  <path
     id="path1297-0-3-0-4-8-0-4-0-4-3-3-1-5-3"
     style="opacity:1;fill:#f1e3c4;fill-opacity:1;stroke-width:0.0887614"
     d="m 3.6339639,0.47862417 c -1.451511,-0.0378 -2.71838017,0.52571993 -3.37204037,2.13238033 -1.1207,2.705379 1.65908037,5.366501 2.61368937,6.739422 0.704721,0.9557375 1.618831,2.0381985 2.113951,3.1179995 0.29009,0.70765 0.373689,1.457641 0.66578,2.205 0.66324,1.83018 1.286231,3.87065 2.159351,5.57717 0.454869,0.87367 0.95227,1.788572 1.532709,2.575272 0.33396,0.46028 0.9130881,0.666029 1.0378881,1.41679 -0.5786271,0.83094 -0.6247591,2.079428 -0.9561181,3.120279 -1.49305,4.700841 -0.913089,10.524591 1.2036691,13.976563 0.66221,1.040088 2.24161,3.3283 4.357871,2.452738 1.86669,-0.747749 1.4528,-3.119529 1.9915,-5.1982 0.123676,-0.50227 0.04122,-0.832079 0.288192,-1.16453 v 0.087 c 0.580458,1.163 1.164478,2.2829 1.703188,3.451591 1.288001,2.036309 3.526781,4.159611 5.395242,5.572621 0.992779,0.751509 1.780249,2.038569 3.0247,2.497739 v -0.124827 h -0.0825 c -0.25001,-0.37443 -0.623529,-0.53896 -0.95591,-0.828659 -0.746511,-0.74963 -1.573982,-1.6668 -2.15699,-2.498121 -1.741891,-2.32867 -3.280051,-4.90885 -4.646201,-7.570731 -0.665769,-1.292748 -1.24547,-2.70575 -1.7849,-3.994709 -0.250009,-0.496601 -0.250009,-1.247362 -0.6632,-1.496231 -0.624071,0.914161 -1.533521,1.70538 -1.98916,2.82489 -0.7888,1.790861 -0.872361,3.996601 -1.165011,6.28557 -0.16265,0.04539 -0.0798,-7.68e-4 -0.16265,0.0833 -1.326161,-0.332838 -1.78051,-1.704999 -2.279729,-2.865748 -1.244431,-2.957251 -1.454872,-7.699313 -0.374791,-11.110834 0.29008,-0.872149 1.53763,-3.616489 1.03815,-4.44894 -0.24999,-0.793509 -1.079649,-1.24661 -1.53554,-1.873309 -0.538182,-0.790091 -1.1222611,-1.788179 -1.4917711,-2.663769 -0.996109,-2.328662 -1.497639,-4.908102 -2.572919,-7.237143 -0.49818,-1.08322 -1.370541,-2.2053705 -2.073239,-3.2016015 -0.790081,-1.123298 -1.661372,-1.915659 -2.284631,-3.245088 -0.206131,-0.458761 -0.497429,-1.207641 -0.167549,-1.705371 0.0825,-0.332831 0.252649,-0.45915 0.583539,-0.542741 0.536619,-0.45764 2.07372,0.124813 2.61161,0.37444 1.53636,0.62217 2.821312,1.208021 4.105692,2.079802 0.581239,0.41718 1.2047261,1.20726 1.9504871,1.41718 h 0.871831 c 1.32719,0.287429 2.822051,0.0794 4.067511,0.456509 2.197501,0.706491 4.188969,1.74659 5.974399,2.8702705 5.433152,3.453101 9.914012,8.362341 12.941332,14.226562 0.498711,0.955379 0.707041,1.82868 1.1627,2.824901 0.8713,2.04274 1.95073,4.122909 2.82021,6.117639 0.870581,1.95536 1.7037,3.950071 2.949961,5.574892 0.620431,0.87216 3.109799,1.32905 4.230501,1.78706 0.82771,0.374439 2.11651,0.70803 2.863541,1.164901 1.410739,0.87217 2.81688,1.871029 4.14668,2.82981 0.662169,0.499239 2.737961,1.537059 2.863279,2.37027 v 0.002 c -3.320748,-0.0833 -5.89317,0.249618 -8.04995,1.165279 -0.6222,0.249619 -1.61572,0.249619 -1.701089,1.039721 0.333969,0.33282 0.37216,0.87102 0.665279,1.33094 0.49663,0.83207 1.367961,1.95499 2.15752,2.53858 0.87161,0.66604 1.742902,1.32753 2.65701,1.90997 1.61657,1.00267 3.441942,1.58322 5.015931,2.58171 0.91592,0.581701 1.82542,1.329811 2.74081,1.955369 C 60.12866,59.775034 60.41698,60.317393 61,60.523144 v -0.124798 c -0.294645,-0.374407 -0.373696,-0.912597 -0.663255,-1.330526 -0.41281,-0.413001 -0.82825,-0.791971 -1.243911,-1.205751 -1.203699,-1.62254 -2.700339,-3.03404 -4.314799,-4.19894 -1.328781,-0.91757 -4.23332,-2.16718 -4.771001,-3.701601 0,0 -0.04379,-0.0453 -0.0851,-0.0833 0.913081,-0.08699 1.993279,-0.41755 2.863281,-0.669821 1.408969,-0.374431 2.69467,-0.291229 4.146399,-0.663 0.665072,-0.16642 1.32982,-0.378231 1.996381,-0.5817 v -0.378188 c -0.750875,-0.74697 -1.288015,-1.745841 -2.075805,-2.45235 -2.11444,-1.829801 -4.440352,-3.618761 -6.846481,-5.11876 -1.28775,-0.832081 -2.94763,-1.36876 -4.31684,-2.077542 -0.495611,-0.249619 -1.32493,-0.374439 -1.616571,-0.79273 -0.74701,-0.914918 -1.163189,-2.11839 -1.70109,-3.2016 -1.201949,-2.28525 -2.366421,-4.82268 -3.40175,-7.23911 -0.74652,-1.621031 -1.20346,-3.2432 -2.116269,-4.741301 -4.275132,-7.073381 -8.919193,-11.355542 -16.054493,-15.5575225 -1.53558,-0.874801 -3.360981,-1.24772 -5.30939,-1.705371 -1.038653,-0.0453 -2.076291,-0.1248 -3.11316,-0.1664 -0.665011,-0.291229 -1.330302,-1.08321 -1.909981,-1.457649 C 8.9875649,2.1398525 6.0531159,0.52259307 3.6330939,0.48629317 Z M 13.866704,10.760775 c -0.70269,3.91e-4 -1.19879,0.08699 -1.699062,0.208041 v 0.0869 h 0.0798 c 0.33395,0.664139 0.91694,1.124059 1.328249,1.70576 0.334341,0.66527 0.624511,1.329041 0.956391,1.99584 0.04381,-0.0378 0.0798,-0.087 0.0798,-0.087 0.58534,-0.41453 0.874139,-1.08017 0.874139,-2.080179 -0.250009,-0.295012 -0.291229,-0.581701 -0.49973,-0.874062 -0.245099,-0.414149 -0.78492,-0.623289 -1.117069,-0.95612 z" />
</svg>
