<?xml version="1.0" encoding="UTF-8" standalone="no"?>
<svg
   height="61"
   preserveAspectRatio="xMidYMid"
   viewBox="0 0 61 61"
   width="61"
   version="1.1"
   id="svg1"
   sodipodi:docname="node-js.svg"
   inkscape:version="1.4 (86a8ad7, 2024-10-11)"
   xmlns:inkscape="http://www.inkscape.org/namespaces/inkscape"
   xmlns:sodipodi="http://sodipodi.sourceforge.net/DTD/sodipodi-0.dtd"
   xmlns="http://www.w3.org/2000/svg"
   xmlns:svg="http://www.w3.org/2000/svg">
  <defs
     id="defs1" />
  <sodipodi:namedview
     id="namedview1"
     pagecolor="#505050"
     bordercolor="#eeeeee"
     borderopacity="1"
     inkscape:showpageshadow="0"
     inkscape:pageopacity="0"
     inkscape:pagecheckerboard="0"
     inkscape:deskcolor="#505050"
     inkscape:zoom="1.0190311"
     inkscape:cx="22.079797"
     inkscape:cy="138.85739"
     inkscape:window-width="1280"
     inkscape:window-height="697"
     inkscape:window-x="-8"
     inkscape:window-y="-8"
     inkscape:window-maximized="1"
     inkscape:current-layer="svg1" />
  <path
     d="m 30.5,61 c -0.840607,0 -1.625172,-0.224162 -2.353698,-0.616445 l -7.453376,-4.427193 c -1.120809,-0.616445 -0.560404,-0.840607 -0.224162,-0.952687 1.513091,-0.504364 1.793294,-0.616445 3.362425,-1.513092 0.168122,-0.112081 0.392283,-0.05604 0.560405,0.05604 l 5.716123,3.418466 c 0.224162,0.112081 0.504364,0.112081 0.672485,0 L 53.14033,44.019749 c 0.224162,-0.112081 0.336243,-0.336243 0.336243,-0.616445 V 17.568672 c 0,-0.280202 -0.112081,-0.504363 -0.336243,-0.616444 L 30.780202,4.0629306 c -0.224162,-0.1120807 -0.504364,-0.1120807 -0.672485,0 L 7.7475881,16.952228 c -0.2241614,0.112081 -0.3362422,0.392283 -0.3362422,0.616444 v 25.834635 c 0,0.224162 0.1120808,0.504364 0.3362422,0.616445 l 6.1084059,3.530546 c 3.306386,1.681213 5.379881,-0.280202 5.379881,-2.241617 V 19.810289 c 0,-0.336242 0.280202,-0.672485 0.672485,-0.672485 h 2.858061 c 0.336243,0 0.672485,0.280202 0.672485,0.672485 v 25.498392 c 0,4.427194 -2.409737,7.005053 -6.61277,7.005053 -1.288928,0 -2.297656,0 -5.155718,-1.40101 L 5.7861737,47.550298 C 4.3291228,46.709692 3.432476,45.14056 3.432476,43.459347 V 17.624713 c 0,-1.681213 0.8966468,-3.250345 2.3536977,-4.090951 L 28.146302,0.58842418 c 1.401011,-0.78456557 3.306385,-0.78456557 4.707396,0 L 55.213826,13.533762 c 1.457051,0.840606 2.353698,2.409738 2.353698,4.090951 v 25.834634 c 0,1.681213 -0.896647,3.250345 -2.353698,4.090951 L 32.853698,60.495636 C 32.125172,60.831879 31.284566,61 30.5,61 Z m 6.892972,-17.764814 c -9.807074,0 -11.824529,-4.483234 -11.824529,-8.293983 0,-0.336243 0.280202,-0.672484 0.672485,-0.672484 h 2.914102 c 0.336242,0 0.616444,0.224161 0.616444,0.560404 0.448324,2.970142 1.737253,4.427193 7.677538,4.427193 4.707396,0 6.724851,-1.064768 6.724851,-3.586588 0,-1.45705 -0.560404,-2.521819 -7.9017,-3.250344 -6.108406,-0.616445 -9.919155,-1.961415 -9.919155,-6.836931 0,-4.539274 3.810749,-7.229215 10.199358,-7.229215 7.173173,0 10.70372,2.465779 11.152043,7.84566 0,0.168121 -0.05604,0.336242 -0.168121,0.504364 -0.11208,0.11208 -0.280202,0.22416 -0.448324,0.22416 h -2.914101 c -0.280202,0 -0.560404,-0.22416 -0.616444,-0.504363 -0.672486,-3.082223 -2.40974,-4.090951 -7.005053,-4.090951 -5.155719,0 -5.772164,1.793294 -5.772164,3.138264 0,1.625172 0.728525,2.129536 7.677538,3.026183 6.892972,0.896647 10.143316,2.185577 10.143316,7.005052 -0.05604,4.931557 -4.09095,7.733579 -11.208084,7.733579 z"
     fill="#539e43"
     id="path1"
     style="fill:#f1e3c4;fill-opacity:1;stroke-width:0.211465" />
</svg>
