<?xml version="1.0" encoding="UTF-8" standalone="no"?>
<svg
   viewBox="0 -1 61 61"
   fill="#ffffff"
   version="1.1"
   id="svg3"
   sodipodi:docname="php.svg"
   width="61"
   height="61"
   inkscape:version="1.4 (86a8ad7, 2024-10-11)"
   xmlns:inkscape="http://www.inkscape.org/namespaces/inkscape"
   xmlns:sodipodi="http://sodipodi.sourceforge.net/DTD/sodipodi-0.dtd"
   xmlns="http://www.w3.org/2000/svg"
   xmlns:svg="http://www.w3.org/2000/svg">
  <defs
     id="defs3" />
  <sodipodi:namedview
     id="namedview3"
     pagecolor="#505050"
     bordercolor="#eeeeee"
     borderopacity="1"
     inkscape:showpageshadow="0"
     inkscape:pageopacity="0"
     inkscape:pagecheckerboard="0"
     inkscape:deskcolor="#505050"
     inkscape:zoom="1"
     inkscape:cx="30.5"
     inkscape:cy="15.5"
     inkscape:window-width="1280"
     inkscape:window-height="697"
     inkscape:window-x="-8"
     inkscape:window-y="-8"
     inkscape:window-maximized="1"
     inkscape:current-layer="svg3" />
  <path
     id="path1"
     style="fill:#f1e3c4;fill-opacity:1;stroke-width:0.636903"
     d="m 26.172003,14.174805 -4.861328,24.236327 h 4.660156 l 2.767578,-13.873046 3.746094,0.0332 c 1.19292,0 1.970228,0.236402 2.330078,0.708984 0.359851,0.472583 0.425998,1.271076 0.201172,2.396484 l -2.160156,10.734375 h 4.726562 L 39.843878,27.170898 C 40.316461,24.650671 39.977906,22.939983 38.830206,22.040039 37.704798,21.140094 35.994747,20.66729 33.699347,20.62207 H 29.5138 l 1.316406,-6.447265 z M 4.8262996,20.62207 1.2765097e-4,44.825195 H 4.6915339 l 1.2832032,-6.414063 h 4.0507819 c 1.372527,0 2.699698,-0.157389 3.982421,-0.472656 1.282725,-0.315266 2.487874,-1.05657 3.613282,-2.226562 0.922873,-0.922874 1.642353,-1.957769 2.160156,-3.105469 0.540094,-1.1477 0.88956,-2.318799 1.046875,-3.511719 0.40507,-2.610667 0.01128,-4.670184 -1.181641,-6.177734 -1.19292,-1.50755 -3.118187,-2.27263 -5.773437,-2.294922 z m 40.0195314,0 -4.828125,24.203125 h 4.69336 l 1.283203,-6.414063 h 4.050781 c 1.372527,0 2.699698,-0.157389 3.982422,-0.472656 1.282723,-0.315266 2.48592,-1.05657 3.611328,-2.226562 0.922873,-0.922874 1.642354,-1.957769 2.160156,-3.105469 0.540094,-1.1477 0.889559,-2.318799 1.046875,-3.511719 0.40507,-2.610667 0.01128,-4.670184 -1.181641,-6.177734 -1.19292,-1.50755 -3.116233,-2.27263 -5.771484,-2.294922 z m -34.617187,3.847656 c 1.800525,-0.02229 3.295361,0.147962 4.488281,0.507813 1.215211,0.35985 1.621868,1.721072 1.216797,4.083984 -0.494874,2.813202 -1.464259,4.455152 -2.904297,4.927734 -1.440039,0.450291 -3.2400148,0.664868 -5.4003911,0.642578 H 7.1563777 c -0.1350235,0 -0.2692733,-0.01287 -0.4042969,-0.03516 L 8.7696589,24.504883 h 0.6816407 c 0.2477554,0 0.5072962,-0.01287 0.7773444,-0.03516 z m 40.017578,0 c 1.800526,-0.02229 3.297314,0.147962 4.490234,0.507813 1.215212,0.35985 1.619915,1.721072 1.214844,4.083984 -0.494874,2.813202 -1.462305,4.455152 -2.902344,4.927734 -1.440038,0.450291 -3.241968,0.664868 -5.402344,0.642578 h -0.472656 c -0.135023,0 -0.269274,-0.01287 -0.404297,-0.03516 l 2.017578,-10.091793 h 0.683594 c 0.247755,0 0.505344,-0.01287 0.775391,-0.03516 z" />
</svg>
