<?xml version="1.0" encoding="UTF-8" standalone="no"?>
<svg
   viewBox="0 0 61 61"
   height="61"
   width="61"
   version="1.1"
   id="svg1"
   sodipodi:docname="wordpress.svg"
   inkscape:version="1.4 (86a8ad7, 2024-10-11)"
   xmlns:inkscape="http://www.inkscape.org/namespaces/inkscape"
   xmlns:sodipodi="http://sodipodi.sourceforge.net/DTD/sodipodi-0.dtd"
   xmlns="http://www.w3.org/2000/svg"
   xmlns:svg="http://www.w3.org/2000/svg">
  <defs
     id="defs1" />
  <sodipodi:namedview
     id="namedview1"
     pagecolor="#505050"
     bordercolor="#eeeeee"
     borderopacity="1"
     inkscape:showpageshadow="0"
     inkscape:pageopacity="0"
     inkscape:pagecheckerboard="0"
     inkscape:deskcolor="#505050"
     inkscape:zoom="1"
     inkscape:cx="30.5"
     inkscape:cy="30.5"
     inkscape:window-width="1280"
     inkscape:window-height="697"
     inkscape:window-x="-8"
     inkscape:window-y="-8"
     inkscape:window-maximized="1"
     inkscape:current-layer="svg1" />
  <g
     id="g1"
     style="fill:#f1e3c4;fill-opacity:1"
     transform="matrix(3.05,0,0,3.05,-6.1,-6.1)">
    <path
       d="M 12,2 C 6.477,2 2,6.477 2,12 2,17.523 6.477,22 12,22 17.523,22 22,17.523 22,12 22,6.477 17.523,2 12,2 Z M 3.5,12 C 3.5,10.768 3.764,9.598 4.236,8.541 L 8.291,19.65 A 8.5,8.5 0 0 1 3.5,12 Z m 8.5,8.501 c -0.834,0 -1.64,-0.122 -2.401,-0.346 l 2.551,-7.411 2.613,7.158 A 0.718,0.718 0 0 0 14.824,20.019 8.497,8.497 0 0 1 12,20.501 Z M 13.172,8.015 c 0.512,-0.027 0.973,-0.081 0.973,-0.081 0.458,-0.054 0.404,-0.727 -0.054,-0.701 0,0 -1.377,0.108 -2.266,0.108 C 10.99,7.341 9.586,7.233 9.586,7.233 9.127,7.207 9.074,7.907 9.532,7.934 c 0,0 0.434,0.054 0.892,0.081 l 1.324,3.629 -1.86,5.579 L 6.792,8.015 C 7.304,7.988 7.765,7.934 7.765,7.934 8.223,7.88 8.168,7.207 7.71,7.233 c 0,0 -1.376,0.108 -2.265,0.108 -0.16,0 -0.347,-0.004 -0.547,-0.01 A 8.491,8.491 0 0 1 12,3.5 c 2.213,0 4.228,0.846 5.74,2.232 -0.037,-0.002 -0.072,-0.007 -0.11,-0.007 -0.835,0 -1.427,0.727 -1.427,1.509 0,0.701 0.404,1.293 0.835,1.994 0.323,0.566 0.701,1.293 0.701,2.344 0,0.727 -0.28,1.572 -0.647,2.748 l -0.848,2.833 z m 3.101,11.332 2.596,-7.506 c 0.485,-1.213 0.646,-2.182 0.646,-3.045 0,-0.313 -0.021,-0.603 -0.057,-0.874 A 8.455,8.455 0 0 1 20.5,12 8.493,8.493 0 0 1 16.273,19.347 Z"
       id="path1"
       style="fill:#f1e3c4;fill-opacity:1" />
  </g>
</svg>
