<?xml version="1.0" encoding="UTF-8" standalone="no"?>
<!-- Created with Inkscape (http://www.inkscape.org/) -->

<svg
   width="20.027832"
   height="20.027222"
   viewBox="0 0 5.2990305 5.2988693"
   version="1.1"
   id="svg5"
   xml:space="preserve"
   xmlns="http://www.w3.org/2000/svg"
   xmlns:svg="http://www.w3.org/2000/svg"><defs
     id="defs2"><style
       id="style1341">.cls-1{fill:#6db33f;}</style></defs><g
     id="layer1"
     transform="translate(-699.81037,114.43353)"><path
       d="m 705.10942,-114.04717 v 4.52621 c 0,0.2134 -0.1731,0.3863 -0.3865,0.3863 h -4.5261 c -0.2134,0 -0.3864,-0.1729 -0.3864,-0.3863 v -4.52621 c 0,-0.2134 0.173,-0.38636 0.3864,-0.38636 h 4.5261 c 0.2135,0 0.3865,0.17296 0.3865,0.38636 z m -3.7535,1.60075 h -0.7727 v 2.53909 h 0.7727 z m 0.066,-0.82797 c 0.01,-0.40322 -0.4802,-0.611 -0.7687,-0.32939 -0.2886,0.28155 -0.093,0.77155 0.3106,0.77651 h 0.01 c 0.2439,0.006 0.4466,-0.18665 0.4526,-0.43054 z m 2.9144,1.84575 c 0,-0.77272 -0.5111,-1.07302 -0.9549,-1.07302 -0.4438,0 -0.7728,0.25835 -0.8456,0.41401 h -0.01 v -0.35877 h -0.7286 v 2.53909 h 0.7728 v -1.32476 c 0,-0.40739 0.2771,-0.58842 0.5465,-0.58842 0.2207,0 0.447,0.17002 0.447,0.57852 v 1.33466 h 0.7728 z"
       fill="currentColor"
       id="path37275-3-5-4-3-6-5-1-6-5-7-82"
       style="opacity:0.820513;fill:#f1e3c4;fill-opacity:1;stroke-width:0.110394" /></g><style
     type="text/css"
     id="style1256">
	.st0{fill:#DD0031;}
	.st1{fill:#C3002F;}
	.st2{fill:#FFFFFF;}
</style></svg>
