<svg xmlns="http://www.w3.org/2000/svg">

	<symbol id="sena" viewBox="0 0 16.139583 16.139584">
		<g transform="matrix(1.4467411,0,0,1.4467411,-748.3845,-1095.8357)">
			<path
				d="m 522.90171,757.5869 c -0.66753,0 -1.1993,0.54308 -1.1993,1.19931 0,0.66754 0.54308,1.19931 1.1993,1.19931 0.66754,0 1.19931,-0.54309 1.19931,-1.19931 v 0 c 0,-0.65623 -0.53177,-1.19931 -1.19931,-1.19931 z m -3.95997,2.7833 c -0.21497,0 -0.42994,0.0113 -0.62229,0.0679 -0.13577,0.0339 -0.26022,0.0905 -0.33942,0.16971 -0.10183,0.11314 -0.11315,0.24891 -0.0679,0.37337 0.0453,0.11314 0.16972,0.19234 0.30549,0.2376 0.29417,0.10183 0.62228,0.12445 0.92776,0.18103 0.0566,0.0113 0.12446,0.0339 0.1584,0.0679 0.0339,0.0453 0.0113,0.11314 -0.0453,0.13577 -0.10182,0.0566 -0.22628,0.0566 -0.35074,0.0453 -0.10182,0 -0.22628,-0.0113 -0.30548,-0.0679 -0.0679,-0.0339 -0.0679,-0.10182 -0.0566,-0.1584 h -0.69017 c 0,0.10183 0.0226,0.21497 0.0905,0.30549 0.0679,0.0792 0.16972,0.13577 0.28286,0.1584 0.18103,0.0566 0.37337,0.0679 0.56571,0.0679 0.26023,0 0.52046,0 0.76937,-0.0566 0.14708,-0.0339 0.29417,-0.0905 0.38468,-0.19234 0.16972,-0.16971 0.12446,-0.44125 -0.0905,-0.56571 -0.11314,-0.0679 -0.24891,-0.10183 -0.38469,-0.13577 -0.20365,-0.0453 -0.39599,-0.0679 -0.59965,-0.10183 -0.0679,-0.0113 -0.14708,-0.0226 -0.20366,-0.0566 -0.0566,-0.0339 -0.0679,-0.11314 0,-0.14709 0.0792,-0.0453 0.19235,-0.0453 0.29417,-0.0453 0.10183,0 0.21497,0.0113 0.30549,0.0566 0.0453,0.0226 0.0679,0.0679 0.0679,0.11314 h 0.65623 c 0,-0.0792 -0.0226,-0.16971 -0.0792,-0.2376 -0.0679,-0.0905 -0.19234,-0.14708 -0.3168,-0.18103 -0.2376,-0.0226 -0.45257,-0.0339 -0.65622,-0.0339 z m 1.41427,0.0453 v 1.56136 h 1.91211 v -0.33943 h -1.21062 v -0.30548 h 1.07485 v -0.32811 h -1.07485 v -0.24892 h 1.16536 v -0.33942 z m 3.15667,0 c 0,0 -0.58834,0 -0.88251,0 v 1.56136 h 0.66754 v -1.05222 l 0.91645,1.05222 h 0.91646 v -1.56136 h -0.66754 v 1.04091 z m 2.81724,0 c 0,0 -0.72411,1.04091 -1.08616,1.56136 h 0.70148 l 0.16971,-0.28285 h 1.08617 l 0.1584,0.28285 h 0.78068 l -1.02959,-1.56136 z m 0.35075,0.37337 0.33942,0.56571 h -0.69017 z m -9.39081,1.64056 0.0113,0.84857 3.19061,-0.0113 c 0.1584,0.034 0.26023,0.13577 0.22629,0.38469 l -1.96868,3.42821 0.6336,0.59965 3.03221,-5.2498 z m 6.07574,0 2.98695,5.22717 0.65623,-0.58834 -1.97999,-3.42821 c -0.0339,-0.2376 0.0566,-0.35074 0.22628,-0.38468 l 3.19061,0.0113 v -0.83725 z m -0.49783,0.8712 -2.80593,4.79723 0.74674,0.36205 1.86685,-3.15667 c 0.0679,-0.0566 0.12446,-0.0792 0.19234,-0.0792 0.0679,0 0.13577,0.0226 0.20366,0.0792 l 1.86684,3.16799 0.76937,-0.396 z"
			/>
		</g>
	</symbol>

	<symbol id="react" viewBox="0 0 16.139583 16.139584">
		<g transform="matrix(0.03289764,0,0,0.03289764,-5.7801147,-1.6827136)">
			<path
				d="m 666.3,296.5 c 0,-32.5 -40.7,-63.3 -103.1,-82.4 14.4,-63.6 8,-114.2 -20.2,-130.4 -6.5,-3.8 -14.1,-5.6 -22.4,-5.6 v 22.3 c 4.6,0 8.3,0.9 11.4,2.6 13.6,7.8 19.5,37.5 14.9,75.7 -1.1,9.4 -2.9,19.3 -5.1,29.4 -19.6,-4.8 -41,-8.5 -63.5,-10.9 -13.5,-18.5 -27.5,-35.3 -41.6,-50 32.6,-30.3 63.2,-46.9 84,-46.9 V 78 C 493.2,78 457.2,97.6 420.8,131.6 384.4,97.8 348.4,78.4 320.9,78.4 v 22.3 c 20.7,0 51.4,16.5 84,46.6 -14,14.7 -28,31.4 -41.3,49.9 -22.6,2.4 -44,6.1 -63.6,11 -2.3,-10 -4,-19.7 -5.2,-29 -4.7,-38.2 1.1,-67.9 14.6,-75.8 3,-1.8 6.9,-2.6 11.5,-2.6 V 78.5 c -8.4,0 -16,1.8 -22.6,5.6 -28.1,16.2 -34.4,66.7 -19.9,130.1 -62.2,19.2 -102.7,49.9 -102.7,82.3 0,32.5 40.7,63.3 103.1,82.4 -14.4,63.6 -8,114.2 20.2,130.4 6.5,3.8 14.1,5.6 22.5,5.6 27.5,0 63.5,-19.6 99.9,-53.6 36.4,33.8 72.4,53.2 99.9,53.2 8.4,0 16,-1.8 22.6,-5.6 28.1,-16.2 34.4,-66.7 19.9,-130.1 62,-19.1 102.5,-49.9 102.5,-82.3 z M 536.1,229.8 c -3.7,12.9 -8.3,26.2 -13.5,39.5 -4.1,-8 -8.4,-16 -13.1,-24 -4.6,-8 -9.5,-15.8 -14.4,-23.4 14.2,2.1 27.9,4.7 41,7.9 z m -45.8,106.5 c -7.8,13.5 -15.8,26.3 -24.1,38.2 -14.9,1.3 -30,2 -45.2,2 -15.1,0 -30.2,-0.7 -45,-1.9 -8.3,-11.9 -16.4,-24.6 -24.2,-38 -7.6,-13.1 -14.5,-26.4 -20.8,-39.8 6.2,-13.4 13.2,-26.8 20.7,-39.9 7.8,-13.5 15.8,-26.3 24.1,-38.2 14.9,-1.3 30,-2 45.2,-2 15.1,0 30.2,0.7 45,1.9 8.3,11.9 16.4,24.6 24.2,38 7.6,13.1 14.5,26.4 20.8,39.8 -6.3,13.4 -13.2,26.8 -20.7,39.9 z m 32.3,-13 c 5.4,13.4 10,26.8 13.8,39.8 -13.1,3.2 -26.9,5.9 -41.2,8 4.9,-7.7 9.8,-15.6 14.4,-23.7 4.6,-8 8.9,-16.1 13,-24.1 z M 421.2,430 c -9.3,-9.6 -18.6,-20.3 -27.8,-32 9,0.4 18.2,0.7 27.5,0.7 9.4,0 18.7,-0.2 27.8,-0.7 -9,11.7 -18.3,22.4 -27.5,32 z m -74.4,-58.9 c -14.2,-2.1 -27.9,-4.7 -41,-7.9 3.7,-12.9 8.3,-26.2 13.5,-39.5 4.1,8 8.4,16 13.1,24 4.7,8 9.5,15.8 14.4,23.4 z M 420.7,163 c 9.3,9.6 18.6,20.3 27.8,32 -9,-0.4 -18.2,-0.7 -27.5,-0.7 -9.4,0 -18.7,0.2 -27.8,0.7 9,-11.7 18.3,-22.4 27.5,-32 z m -74,58.9 c -4.9,7.7 -9.8,15.6 -14.4,23.7 -4.6,8 -8.9,16 -13,24 -5.4,-13.4 -10,-26.8 -13.8,-39.8 13.1,-3.1 26.9,-5.8 41.2,-7.9 z m -90.5,125.2 c -35.4,-15.1 -58.3,-34.9 -58.3,-50.6 0,-15.7 22.9,-35.6 58.3,-50.6 8.6,-3.7 18,-7 27.7,-10.1 5.7,19.6 13.2,40 22.5,60.9 -9.2,20.8 -16.6,41.1 -22.2,60.6 -9.9,-3.1 -19.3,-6.5 -28,-10.2 z M 310,490 c -13.6,-7.8 -19.5,-37.5 -14.9,-75.7 1.1,-9.4 2.9,-19.3 5.1,-29.4 19.6,4.8 41,8.5 63.5,10.9 13.5,18.5 27.5,35.3 41.6,50 -32.6,30.3 -63.2,46.9 -84,46.9 -4.5,-0.1 -8.3,-1 -11.3,-2.7 z m 237.2,-76.2 c 4.7,38.2 -1.1,67.9 -14.6,75.8 -3,1.8 -6.9,2.6 -11.5,2.6 -20.7,0 -51.4,-16.5 -84,-46.6 14,-14.7 28,-31.4 41.3,-49.9 22.6,-2.4 44,-6.1 63.6,-11 2.3,10.1 4.1,19.8 5.2,29.1 z m 38.5,-66.7 c -8.6,3.7 -18,7 -27.7,10.1 -5.7,-19.6 -13.2,-40 -22.5,-60.9 9.2,-20.8 16.6,-41.1 22.2,-60.6 9.9,3.1 19.3,6.5 28.1,10.2 35.4,15.1 58.3,34.9 58.3,50.6 -0.1,15.7 -23,35.6 -58.4,50.6 z M 320.8,78.4 Z"
			/>
			<circle cx="420.89999" cy="296.5" r="45.700001" />
		</g>
	</symbol>

	<symbol id="git" viewBox="0 0 61 61">
		<g transform="matrix(0.40599002,0,0,0.40599002,-129.91681,-30.428952)">
			<path
				d="M 467.4,143.4 401.8,77.8 c -3.8,-3.8 -9.9,-3.8 -13.7,0 0,0 0,0 0,0 l -13.6,13.6 17.3,17.3 c 4.1,-1.4 8.7,-0.3 11.8,2.7 3.1,3.1 4.2,7.7 2.7,11.9 L 423,140 c 4.2,-1.4 8.8,-0.4 11.9,2.7 4.5,4.5 4.5,11.8 0,16.3 0,0 0,0 0,0 -4.5,4.5 -11.8,4.5 -16.3,0 0,0 0,0 0,0 -3.3,-3.3 -4.3,-8.2 -2.5,-12.5 L 400.6,131 v 40.9 c 1.1,0.6 2.2,1.3 3,2.2 4.5,4.5 4.5,11.8 0,16.3 -4.5,4.5 -11.8,4.5 -16.3,0 -4.5,-4.5 -4.5,-11.8 0,-16.3 0,0 0,0 0,0 1.1,-1.1 2.4,-1.9 3.8,-2.5 v -41.3 c -1.4,-0.6 -2.7,-1.4 -3.8,-2.5 -3.3,-3.3 -4.3,-8.3 -2.5,-12.6 l -17,-17 -45,45 c -3.8,3.8 -3.8,9.9 0,13.7 0,0 0,0 0,0 l 65.6,65.6 c 3.8,3.8 9.9,3.8 13.7,0 0,0 0,0 0,0 l 65.3,-65.3 c 3.8,-3.8 3.8,-9.9 0,-13.7"
			/>
		</g>
	</symbol>

	<symbol id="node-js" viewBox="0 0 61 61">
		<path
			d="m 30.5,61 c -0.840607,0 -1.625172,-0.224162 -2.353698,-0.616445 l -7.453376,-4.427193 c -1.120809,-0.616445 -0.560404,-0.840607 -0.224162,-0.952687 1.513091,-0.504364 1.793294,-0.616445 3.362425,-1.513092 0.168122,-0.112081 0.392283,-0.05604 0.560405,0.05604 l 5.716123,3.418466 c 0.224162,0.112081 0.504364,0.112081 0.672485,0 L 53.14033,44.019749 c 0.224162,-0.112081 0.336243,-0.336243 0.336243,-0.616445 V 17.568672 c 0,-0.280202 -0.112081,-0.504363 -0.336243,-0.616444 L 30.780202,4.0629306 c -0.224162,-0.1120807 -0.504364,-0.1120807 -0.672485,0 L 7.7475881,16.952228 c -0.2241614,0.112081 -0.3362422,0.392283 -0.3362422,0.616444 v 25.834635 c 0,0.224162 0.1120808,0.504364 0.3362422,0.616445 l 6.1084059,3.530546 c 3.306386,1.681213 5.379881,-0.280202 5.379881,-2.241617 V 19.810289 c 0,-0.336242 0.280202,-0.672485 0.672485,-0.672485 h 2.858061 c 0.336243,0 0.672485,0.280202 0.672485,0.672485 v 25.498392 c 0,4.427194 -2.409737,7.005053 -6.61277,7.005053 -1.288928,0 -2.297656,0 -5.155718,-1.40101 L 5.7861737,47.550298 C 4.3291228,46.709692 3.432476,45.14056 3.432476,43.459347 V 17.624713 c 0,-1.681213 0.8966468,-3.250345 2.3536977,-4.090951 L 28.146302,0.58842418 c 1.401011,-0.78456557 3.306385,-0.78456557 4.707396,0 L 55.213826,13.533762 c 1.457051,0.840606 2.353698,2.409738 2.353698,4.090951 v 25.834634 c 0,1.681213 -0.896647,3.250345 -2.353698,4.090951 L 32.853698,60.495636 C 32.125172,60.831879 31.284566,61 30.5,61 Z m 6.892972,-17.764814 c -9.807074,0 -11.824529,-4.483234 -11.824529,-8.293983 0,-0.336243 0.280202,-0.672484 0.672485,-0.672484 h 2.914102 c 0.336242,0 0.616444,0.224161 0.616444,0.560404 0.448324,2.970142 1.737253,4.427193 7.677538,4.427193 4.707396,0 6.724851,-1.064768 6.724851,-3.586588 0,-1.45705 -0.560404,-2.521819 -7.9017,-3.250344 -6.108406,-0.616445 -9.919155,-1.961415 -9.919155,-6.836931 0,-4.539274 3.810749,-7.229215 10.199358,-7.229215 7.173173,0 10.70372,2.465779 11.152043,7.84566 0,0.168121 -0.05604,0.336242 -0.168121,0.504364 -0.11208,0.11208 -0.280202,0.22416 -0.448324,0.22416 h -2.914101 c -0.280202,0 -0.560404,-0.22416 -0.616444,-0.504363 -0.672486,-3.082223 -2.40974,-4.090951 -7.005053,-4.090951 -5.155719,0 -5.772164,1.793294 -5.772164,3.138264 0,1.625172 0.728525,2.129536 7.677538,3.026183 6.892972,0.896647 10.143316,2.185577 10.143316,7.005052 -0.05604,4.931557 -4.09095,7.733579 -11.208084,7.733579 z"
		/>
	</symbol>

	<symbol id="mongodb" viewBox="0 0 61.000001 61">
		<path
			d="m 35.798414,6.7988655 c -2.56015,-3.037539 -4.76474,-6.122537 -5.21512,-6.76327 -0.0474,-0.04746 -0.11856,-0.04746 -0.16596,0 -0.4504,0.640733 -2.65497,3.725731 -5.215139,6.76327 C 3.2275442,34.824829 28.663174,53.738389 28.663174,53.738389 l 0.21333,0.142413 C 29.066124,56.799547 29.540244,61 29.540244,61 h 0.9482 0.94821 c 0,0 0.47411,-4.176721 0.66376,-7.119198 l 0.21333,-0.166149 c 0.0237,0.02373 25.45941,-18.889825 3.48467,-46.9157875 z m -5.30997,46.5122865 c 0,0 -1.13783,-0.972914 -1.44601,-1.47112 v -0.04771 l 1.3749,-30.517659 c 0,-0.09494 0.14225,-0.09494 0.14225,0 l 1.37487,30.517659 v 0.04771 c -0.30816,0.498206 -1.44601,1.47112 -1.44601,1.47112 z"
		/>
	</symbol>

	<symbol id="js" viewBox="0 0 61.000352 61">
		<path
			d="M 5.5001756,5.5001418 V 55.499858 H 55.500175 V 5.5001418 Z M 43.556177,28.190092 c 2.987357,0 5.134112,1.039363 6.681637,3.761552 l -3.65863,2.34802 c -0.805537,-1.443772 -1.673749,-2.012588 -3.023007,-2.012588 -1.376017,0 -2.24833,0.873066 -2.24833,2.012588 0,1.409755 0.872687,1.981407 2.888733,2.854472 l 1.173952,0.503933 c 3.992228,1.711802 6.246799,3.456988 6.246799,7.381057 0,4.230219 -3.32294,6.547054 -7.785848,6.547054 -4.363409,0 -7.182417,-2.07873 -8.56171,-4.803756 l 3.817612,-2.218571 c 1.007052,1.644091 2.317687,2.853534 4.635249,2.853534 1.946889,0 3.190473,-0.974168 3.190473,-2.318729 0,-1.611016 -1.278359,-2.180776 -3.421372,-3.118094 L 42.317791,41.476945 C 38.927136,40.033174 36.67474,38.22279 36.67474,34.397932 c 0,-3.524391 2.685527,-6.20595 6.881437,-6.20595 z m -15.525012,0.267714 h 4.698398 v 16.040223 c 0,4.865489 -2.852076,7.078385 -7.015586,7.078385 -3.761612,0 -5.940874,-1.946447 -7.048993,-4.291 l 3.82527,-2.314946 c 0.738071,1.309601 1.409566,2.416362 3.023858,2.416362 1.543549,0 2.517053,-0.604715 2.517053,-2.951791 z"
		/>
	</symbol>

	<symbol id="css" viewBox="0 0 61.000387 61">
		<path
			d="m 186,-142 v 51.240001 A 9.7600304,9.7600304 0 0 0 195.76023,-81 h 41.47992 a 9.7600304,9.7600304 0 0 0 9.76023,-9.759999 V -132.24154 A 9.7600304,9.7600304 0 0 0 237.24015,-142 Z m 36.18251,33.24279 c 1.71734,-0.0384 3.43471,0.53257 4.38655,1.68725 1.17423,1.19003 1.6877,3.53205 1.58814,5.6877 h -4.08755 c 0.0346,-0.88609 -0.0499,-2.3155 -0.39378,-2.83655 -0.24093,-0.44112 -0.69719,-0.66207 -1.36763,-0.66207 -1.19495,0 -1.79096,0.71394 -1.79096,2.14183 0,1.51664 0.60311,2.13913 1.98067,2.772758 1.78362,0.69319 4.0517,1.876302 4.87381,3.308793 2.45226,4.36395 0.76972,11.029568 -5.25162,10.775578 l 0.001,0.0015 c -4.34147,0.05764 -6.28413,-3.029827 -6.16413,-7.216252 h 4.24579 c -0.11796,1.825196 0.50879,3.488239 2.01183,3.372579 0.67044,0 1.14204,-0.211338 1.41478,-0.630941 0.51847,-0.76812 0.61645,-2.985254 -0.12604,-3.843673 -0.51793,-0.82691 -2.38147,-1.556988 -3.3655,-2.048832 -1.40483,-0.672056 -2.41557,-1.470147 -3.03413,-2.394657 -1.39511,-2.052293 -1.26673,-6.555723 0.69061,-8.380533 0.95106,-1.12625 2.6689,-1.71569 4.38651,-1.73452 z m 13.71053,0 c 1.71761,-0.0384 3.43472,0.53257 4.38674,1.68725 1.17427,1.19003 1.68725,3.53205 1.58796,5.6877 h -4.08733 c 0.0346,-0.88609 -0.0496,-2.3155 -0.39247,-2.83655 -0.24093,-0.44112 -0.69873,-0.66207 -1.36891,-0.66207 -1.19521,0 -1.79122,0.71394 -1.79122,2.14183 0,1.51664 0.60335,2.13913 1.98063,2.772758 1.78366,0.69319 4.05166,1.876302 4.87408,3.308793 2.45222,4.36395 0.76973,11.029568 -5.25161,10.775578 l 0.001,0.0015 c -4.34147,0.05764 -6.28436,-3.029827 -6.16409,-7.216252 h 4.24552 c -0.11797,1.825196 0.50883,3.488239 2.01183,3.372579 0.67044,0 1.1423,-0.211338 1.41504,-0.630941 0.51847,-0.76812 0.61515,-2.985254 -0.12565,-3.843673 -0.51801,-0.82691 -2.38048,-1.556988 -3.36451,-2.048832 -1.40479,-0.672056 -2.4153,-1.470147 -3.03386,-2.394657 -1.39511,-2.052293 -1.26596,-6.555723 0.69165,-8.380533 0.95106,-1.12625 2.66787,-1.71569 4.3852,-1.73452 z m -27.85857,0.0384 c 1.79127,0 3.57673,0.51759 4.637,1.6396 1.30653,1.15199 1.79987,3.50553 1.68275,5.7023 h -4.49759 c 0.0346,-0.86302 8.1e-4,-2.17063 -0.51847,-2.66286 -0.65946,-0.89262 -2.40142,-0.78695 -2.86203,0.14218 -0.2828,0.50413 -0.42382,1.24958 -0.42382,2.23711 v 8.916568 c 0,1.86977 0.64973,2.815413 1.94969,2.836164 0.60754,0 1.06945,-0.219024 1.38357,-0.662067 0.43859,-0.523351 0.50645,-1.683024 0.47106,-2.520693 h 4.49628 c 0.3074,4.273651 -2.21513,7.268126 -6.50811,7.215868 -3.9173,0 -6.33601,-2.209833 -6.29013,-6.269839 V -102.4159 c 0,-2.05882 0.60336,-3.62426 1.80876,-4.69556 1.08254,-1.04286 2.87958,-1.59503 4.67104,-1.60694 z"
		/>
  	<path
			d="M 5.5 5.5 L 5.5 47.5 A 7.9999737 7.9999737 0 0 0 13.5 55.5 L 47.5 55.5 A 7.9999737 7.9999737 0 0 0 55.5 47.5 L 55.5 13.498047 A 7.9999737 7.9999737 0 0 0 47.5 5.5 L 5.5 5.5 z M 35.15625 32.748047 L 35.158203 32.748047 C 36.565852 32.716547 37.973719 33.184409 38.753906 34.130859 C 39.716382 35.106286 40.136295 37.026051 40.054688 38.792969 L 36.705078 38.792969 C 36.733408 38.066674 36.664658 36.895834 36.382812 36.46875 C 36.18533 36.107178 35.811257 35.925781 35.261719 35.925781 C 34.282259 35.925781 33.792969 36.511255 33.792969 37.681641 C 33.792969 38.924783 34.28689 39.433757 35.416016 39.953125 C 36.87799 40.521309 38.738254 41.49185 39.412109 42.666016 C 41.422146 46.243 40.042916 51.706235 35.107422 51.498047 L 35.107422 51.5 C 31.548865 51.54724 29.956324 49.015458 30.054688 45.583984 L 33.535156 45.583984 C 33.438466 47.080037 33.951602 48.444411 35.183594 48.349609 C 35.733132 48.349609 36.120194 48.175965 36.34375 47.832031 C 36.768723 47.202429 36.84883 45.385259 36.240234 44.681641 C 35.815704 44.00385 34.289002 43.4051 33.482422 43.001953 C 32.330935 42.45109 31.501162 41.796853 30.994141 41.039062 C 29.850621 39.356867 29.956178 35.665661 31.560547 34.169922 C 32.340101 33.246779 33.748382 32.76348 35.15625 32.748047 z M 46.396484 32.748047 C 47.80435 32.716547 49.211852 33.184409 49.992188 34.130859 C 50.954707 35.106286 51.374352 37.026051 51.292969 38.792969 L 47.943359 38.792969 C 47.971689 38.066674 47.902133 36.895834 47.621094 36.46875 C 47.423612 36.107178 47.049321 35.925781 46.5 35.925781 C 45.520321 35.925781 45.03125 36.511255 45.03125 37.681641 C 45.03125 38.924783 45.525388 39.433757 46.654297 39.953125 C 48.116297 40.521309 49.976279 41.49185 50.650391 42.666016 C 52.660387 46.243 51.281196 51.706235 46.345703 51.498047 L 46.345703 51.5 C 42.787143 51.54724 41.194387 49.015458 41.292969 45.583984 L 44.773438 45.583984 C 44.676747 47.080037 45.189916 48.444411 46.421875 48.349609 C 46.971412 48.349609 47.358473 48.175965 47.582031 47.832031 C 48.007002 47.202429 48.085721 45.385259 47.478516 44.681641 C 47.053919 44.00385 45.527273 43.4051 44.720703 43.001953 C 43.569244 42.45109 42.741396 41.796853 42.234375 41.039062 C 41.090857 39.356867 41.1962 35.665661 42.800781 34.169922 C 43.580343 33.246779 44.988844 32.76348 46.396484 32.748047 z M 23.560547 32.779297 C 25.02879 32.779297 26.492262 33.203368 27.361328 34.123047 C 28.432251 35.067294 28.836234 36.996256 28.740234 38.796875 L 25.054688 38.796875 C 25.083037 38.089477 25.054542 37.018697 24.628906 36.615234 C 24.088375 35.883585 22.660745 35.970851 22.283203 36.732422 C 22.051395 37.145648 21.935547 37.755009 21.935547 38.564453 L 21.935547 45.873047 C 21.935547 47.405635 22.469619 48.182211 23.535156 48.199219 C 24.033138 48.199219 24.41049 48.019398 24.667969 47.65625 C 25.027462 47.227277 25.083695 46.276454 25.054688 45.589844 L 28.740234 45.589844 C 28.992202 49.092815 26.925061 51.54674 23.40625 51.503906 C 20.195373 51.503906 18.212392 49.693087 18.25 46.365234 L 18.25 37.945312 C 18.25 36.257765 18.744397 34.97576 19.732422 34.097656 C 20.619754 33.242858 22.092146 32.78906 23.560547 32.779297 z"
		/>
	</symbol>

	<symbol id="html" viewBox="0 0 61.000387 61">
		<g transform="matrix(0.11937424,0,0,0.11937424,-0.05974575,-0.05980544)">
			<path
				d="m 108.669,0.501 h 23.032 V 23.257 H 152.77 V 0.501 h 23.034 V 69.41 H 152.772 V 46.334 H 131.703 V 69.41 H 108.671 V 0.501 Z m 97.422,22.852 H 185.816 V 0.501 H 249.41 V 23.353 H 229.125 V 69.41 H 206.093 V 23.353 Z M 259.502,0.501 h 24.02 l 14.771,24.213 14.759,-24.213 h 24.023 V 69.41 H 314.137 V 35.256 l -15.845,24.5 h -0.395 l -15.856,-24.5 V 69.41 h -22.539 z m 89.038,0 h 23.038 v 46.133 h 32.391 V 69.41 H 348.54 Z M 74.987,100.926 107.933,470.459 255.777,511.499 404.031,470.4 437.012,100.925 H 74.987 Z m 293.302,87.694 -2.063,22.977 -0.906,10.188 H 365.171 256 255.842 191.886 l 4.142,46.407 h 59.814 0.158 92.98 12.214 l -1.106,12.172 -10.65,119.32 -0.682,7.652 L 256,433.045 v 0.008 l -0.208,0.059 -92.839,-25.774 -6.351,-71.161 h 20.97 24.527 l 3.227,36.146 50.474,13.632 0.042,-0.013 v -0.004 l 50.551,-13.64 5.257,-58.781 H 256 255.842 154.578 L 143.439,188.62 142.354,176.463 H 255.842 256 369.374 Z"
			/>
		</g>
	</symbol>

	<symbol id="mysql" viewBox="0 0 61.000002 61">
		<path
			d="M 5.8360979,2.9394117 C 4.5035632,2.9047097 3.3405358,3.4220398 2.7404543,4.8970067 1.711615,7.3806334 4.2635446,9.8236307 5.1399069,11.084017 c 0.646957,0.877398 1.4861399,1.871133 1.9406763,2.862426 0.2663122,0.649646 0.3430588,1.338162 0.6112079,2.024263 0.6088761,1.680165 1.1808022,3.553383 1.982355,5.120024 0.4175849,0.802058 0.8742149,1.641968 1.4070769,2.364184 0.306586,0.422553 0.838245,0.611437 0.952815,1.30066 -0.531198,0.762831 -0.573549,1.908983 -0.877747,2.864518 -1.370669,4.315527 -0.838246,9.66192 1.105007,12.830944 0.60793,0.954834 2.057872,3.055488 4.000669,2.251694 1.713682,-0.686459 1.333718,-2.86383 1.828262,-4.772118 0.113539,-0.461101 0.03784,-0.763877 0.26457,-1.069078 v 0.07987 c 0.53288,1.067672 1.069029,2.095777 1.563582,3.168674 1.182427,1.869398 3.237701,3.818659 4.95301,5.11585 0.911403,0.689909 1.634326,1.871473 2.776773,2.293005 v -0.114595 h -0.07574 c -0.229515,-0.34374 -0.572418,-0.494784 -0.877554,-0.760737 -0.685321,-0.688185 -1.444968,-1.530177 -1.980188,-2.293357 -1.599113,-2.137795 -3.011194,-4.506486 -4.265365,-6.95018 -0.611197,-1.186785 -1.143382,-2.483967 -1.638596,-3.667273 -0.229517,-0.455896 -0.229517,-1.145119 -0.60884,-1.373589 -0.572918,0.839229 -1.407823,1.565595 -1.826114,2.593342 -0.724144,1.644069 -0.800856,3.669011 -1.069518,5.770359 -0.149318,0.04167 -0.07326,-7.06e-4 -0.149318,0.07647 -1.21746,-0.305556 -1.634567,-1.565245 -2.092866,-2.630851 -1.142429,-2.714853 -1.33562,-7.068221 -0.344071,-10.200109 0.266304,-0.800663 1.411595,-3.320056 0.953056,-4.084274 C 13.443551,23.155678 12.681897,22.739715 12.263374,22.164385 11.769305,21.439056 11.233101,20.522779 10.893879,19.718958 9.9794186,17.581167 9.5189976,15.213156 8.5318553,13.075021 8.0745098,12.080589 7.2736538,11.050418 6.628554,10.135845 5.9032337,9.1046209 5.10336,8.3772076 4.5311878,7.1567482 4.3419528,6.7355905 4.0745317,6.0480941 4.3773723,5.5911617 4.4531101,5.2856119 4.6093124,5.1696469 4.9130803,5.0929076 5.4057141,4.6727791 6.8168232,5.2074901 7.3106239,5.4366558 c 1.4104289,0.5711725 2.5900569,1.1090029 3.7691591,1.9093264 0.533598,0.382985 1.105979,1.1083043 1.790612,1.3010177 h 0.800369 c 1.218404,0.2638693 2.590736,0.072892 3.734109,0.4190903 2.017378,0.6485819 3.84561,1.6034268 5.484694,2.6350028 4.987812,3.170059 9.101388,7.676903 11.880567,13.06045 0.457833,0.877069 0.649087,1.678788 1.067397,2.593352 0.799882,1.875302 1.790834,3.784965 2.589045,5.616193 0.799222,1.795084 1.564053,3.626295 2.708161,5.117934 0.569576,0.800671 2.854897,1.220111 3.883738,1.64058 0.759866,0.343746 1.943026,0.649994 2.628825,1.069416 1.295105,0.800681 2.585988,1.717667 3.806788,2.597859 0.607893,0.458317 2.513538,1.411071 2.628584,2.175985 v 0.0018 c -3.048555,-0.07648 -5.410123,0.229158 -7.390118,1.069764 -0.5712,0.229159 -1.483284,0.229159 -1.561655,0.954498 0.306595,0.30554 0.341655,0.799625 0.610748,1.221847 0.455922,0.763868 1.255833,1.794745 1.980674,2.330499 0.800166,0.611447 1.600041,1.218716 2.439222,1.753416 1.484065,0.920484 3.159815,1.453447 4.604789,2.370094 0.840845,0.53402 1.675796,1.22081 2.516154,1.795093 0.417595,0.305551 0.682283,0.803454 1.217514,0.992339 V 57.947644 C 58.229507,57.603927 58.156935,57.10985 57.89111,56.726177 57.512137,56.347029 57.13075,55.999122 56.749159,55.619259 55.644124,54.129714 54.27016,52.83391 52.788032,51.764494 c -1.219865,-0.842359 -3.886327,-1.989543 -4.379935,-3.39819 0,0 -0.0402,-0.04159 -0.07812,-0.07648 0.838239,-0.07986 1.829896,-0.383324 2.628586,-0.614918 1.29348,-0.343739 2.473795,-0.267358 3.806531,-0.608655 0.610557,-0.152779 1.220818,-0.347229 1.832742,-0.53402 v -0.347189 c -0.689328,-0.685743 -1.182439,-1.602739 -1.905657,-2.251338 -1.941125,-1.679817 -4.076388,-3.322141 -6.285294,-4.699189 -1.182196,-0.763878 -2.706021,-1.256566 -3.963,-1.907252 -0.454987,-0.229159 -1.216329,-0.343747 -1.484066,-0.727752 -0.685782,-0.839883 -1.067848,-1.94471 -1.561658,-2.939132 -1.103429,-2.097935 -2.172453,-4.427378 -3.122919,-6.64574 -0.68533,-1.48816 -1.104816,-2.977364 -1.942804,-4.35267 C 32.407724,16.168375 28.144324,12.237211 21.593885,8.3796551 20.184172,7.5765591 18.508394,7.2342072 16.719691,6.8140685 15.766173,6.7724817 14.813588,6.6994981 13.861707,6.6613079 13.251205,6.3939501 12.640447,5.6668856 12.108283,5.3231383 10.750879,4.4644738 8.0569588,2.9797766 5.8352993,2.9464521 Z m 9.3939911,9.4393513 c -0.645092,3.59e-4 -1.100528,0.07986 -1.559795,0.190989 v 0.07978 h 0.07326 c 0.306577,0.609701 0.841781,1.031923 1.219376,1.565943 0.306936,0.61074 0.573322,1.220104 0.877998,1.832247 0.04022,-0.0347 0.07326,-0.07987 0.07326,-0.07987 0.537361,-0.380552 0.802488,-0.991632 0.802488,-1.909672 -0.229519,-0.270833 -0.26736,-0.534023 -0.45877,-0.80242 -0.22501,-0.380202 -0.720583,-0.5722 -1.025506,-0.877749 z"
		/>
	</symbol>

	<symbol id="php" viewBox="0 -1 61 61">
		<path
			d="m 26.172003,14.174805 -4.861328,24.236327 h 4.660156 l 2.767578,-13.873046 3.746094,0.0332 c 1.19292,0 1.970228,0.236402 2.330078,0.708984 0.359851,0.472583 0.425998,1.271076 0.201172,2.396484 l -2.160156,10.734375 h 4.726562 L 39.843878,27.170898 C 40.316461,24.650671 39.977906,22.939983 38.830206,22.040039 37.704798,21.140094 35.994747,20.66729 33.699347,20.62207 H 29.5138 l 1.316406,-6.447265 z M 4.8262996,20.62207 1.2765097e-4,44.825195 H 4.6915339 l 1.2832032,-6.414063 h 4.0507819 c 1.372527,0 2.699698,-0.157389 3.982421,-0.472656 1.282725,-0.315266 2.487874,-1.05657 3.613282,-2.226562 0.922873,-0.922874 1.642353,-1.957769 2.160156,-3.105469 0.540094,-1.1477 0.88956,-2.318799 1.046875,-3.511719 0.40507,-2.610667 0.01128,-4.670184 -1.181641,-6.177734 -1.19292,-1.50755 -3.118187,-2.27263 -5.773437,-2.294922 z m 40.0195314,0 -4.828125,24.203125 h 4.69336 l 1.283203,-6.414063 h 4.050781 c 1.372527,0 2.699698,-0.157389 3.982422,-0.472656 1.282723,-0.315266 2.48592,-1.05657 3.611328,-2.226562 0.922873,-0.922874 1.642354,-1.957769 2.160156,-3.105469 0.540094,-1.1477 0.889559,-2.318799 1.046875,-3.511719 0.40507,-2.610667 0.01128,-4.670184 -1.181641,-6.177734 -1.19292,-1.50755 -3.116233,-2.27263 -5.771484,-2.294922 z m -34.617187,3.847656 c 1.800525,-0.02229 3.295361,0.147962 4.488281,0.507813 1.215211,0.35985 1.621868,1.721072 1.216797,4.083984 -0.494874,2.813202 -1.464259,4.455152 -2.904297,4.927734 -1.440039,0.450291 -3.2400148,0.664868 -5.4003911,0.642578 H 7.1563777 c -0.1350235,0 -0.2692733,-0.01287 -0.4042969,-0.03516 L 8.7696589,24.504883 h 0.6816407 c 0.2477554,0 0.5072962,-0.01287 0.7773444,-0.03516 z m 40.017578,0 c 1.800526,-0.02229 3.297314,0.147962 4.490234,0.507813 1.215212,0.35985 1.619915,1.721072 1.214844,4.083984 -0.494874,2.813202 -1.462305,4.455152 -2.902344,4.927734 -1.440038,0.450291 -3.241968,0.664868 -5.402344,0.642578 h -0.472656 c -0.135023,0 -0.269274,-0.01287 -0.404297,-0.03516 l 2.017578,-10.091793 h 0.683594 c 0.247755,0 0.505344,-0.01287 0.775391,-0.03516 z"
		/>
	</symbol>

	<symbol id="wordpress" viewBox="0 0 61 61">
		<g transform="matrix(3.05,0,0,3.05,-6.1,-6.1)">
			<path
				d="M 12,2 C 6.477,2 2,6.477 2,12 2,17.523 6.477,22 12,22 17.523,22 22,17.523 22,12 22,6.477 17.523,2 12,2 Z M 3.5,12 C 3.5,10.768 3.764,9.598 4.236,8.541 L 8.291,19.65 A 8.5,8.5 0 0 1 3.5,12 Z m 8.5,8.501 c -0.834,0 -1.64,-0.122 -2.401,-0.346 l 2.551,-7.411 2.613,7.158 A 0.718,0.718 0 0 0 14.824,20.019 8.497,8.497 0 0 1 12,20.501 Z M 13.172,8.015 c 0.512,-0.027 0.973,-0.081 0.973,-0.081 0.458,-0.054 0.404,-0.727 -0.054,-0.701 0,0 -1.377,0.108 -2.266,0.108 C 10.99,7.341 9.586,7.233 9.586,7.233 9.127,7.207 9.074,7.907 9.532,7.934 c 0,0 0.434,0.054 0.892,0.081 l 1.324,3.629 -1.86,5.579 L 6.792,8.015 C 7.304,7.988 7.765,7.934 7.765,7.934 8.223,7.88 8.168,7.207 7.71,7.233 c 0,0 -1.376,0.108 -2.265,0.108 -0.16,0 -0.347,-0.004 -0.547,-0.01 A 8.491,8.491 0 0 1 12,3.5 c 2.213,0 4.228,0.846 5.74,2.232 -0.037,-0.002 -0.072,-0.007 -0.11,-0.007 -0.835,0 -1.427,0.727 -1.427,1.509 0,0.701 0.404,1.293 0.835,1.994 0.323,0.566 0.701,1.293 0.701,2.344 0,0.727 -0.28,1.572 -0.647,2.748 l -0.848,2.833 z m 3.101,11.332 2.596,-7.506 c 0.485,-1.213 0.646,-2.182 0.646,-3.045 0,-0.313 -0.021,-0.603 -0.057,-0.874 A 8.455,8.455 0 0 1 20.5,12 8.493,8.493 0 0 1 16.273,19.347 Z"
			/>
		</g>
	</symbol>

</svg>
